<svg width="49" height="48" viewBox="0 0 49 48" fill="none" xmlns="http://www.w3.org/2000/svg">
    <g clip-path="url(#clip0_10111_4586)">
        <path
            d="M29.8662 36.8V35.3288C29.8662 34.6045 30.254 33.939 30.8781 33.5919C35.1021 31.2423 37.6236 26.7817 37.4586 21.9509C37.2231 15.0654 31.4234 9.52545 24.523 9.60073C17.5441 9.67714 11.8662 15.4189 11.8662 22.4C11.8662 27.0444 14.3918 31.3336 18.4576 33.5937C19.0797 33.9394 19.4661 34.6044 19.4661 35.3293V36.8H29.8662ZM18.9945 30.0275C18.3937 29.591 18.0985 28.8651 18.2241 28.1332L18.8787 24.3163L16.1055 21.6131C15.5737 21.0947 15.3859 20.3339 15.6155 19.6277C15.845 18.9214 16.444 18.4163 17.1789 18.3095L21.0114 17.7526L22.7254 14.2798C23.0541 13.6138 23.7196 13.2002 24.4622 13.2002C25.2048 13.2001 25.8703 13.6139 26.1991 14.2798V14.2799L27.9129 17.7527L31.7454 18.3095C32.4803 18.4163 33.0795 18.9215 33.3089 19.6277C33.5384 20.334 33.3506 21.0948 32.819 21.6131L30.0456 24.3164L30.7003 28.1333C30.8258 28.8653 30.5305 29.5911 29.9298 30.0276C29.5903 30.2743 29.1931 30.3996 28.7931 30.3996C28.4854 30.3996 28.176 30.3254 27.8901 30.1752L24.4622 28.373L21.0343 30.1752C20.3769 30.5205 19.5953 30.464 18.9945 30.0275Z"
            fill="#6C533B" />
        <path
            d="M24.09 26.761C24.2065 26.6997 24.3344 26.6691 24.4623 26.6691C24.5901 26.6691 24.718 26.6997 24.8345 26.761L28.6348 28.7589C28.7959 28.8438 28.9264 28.7792 28.9894 28.7332C29.0526 28.6873 29.1542 28.5833 29.1234 28.4039L28.3976 24.1723C28.3531 23.9128 28.4391 23.648 28.6278 23.4642L31.7022 20.4674C31.8326 20.3402 31.8114 20.1965 31.7873 20.1221C31.7631 20.0477 31.6957 19.919 31.5154 19.8929L27.2667 19.2754C27.0061 19.2375 26.7809 19.074 26.6644 18.8378L24.7643 14.9879L24.7644 14.988C24.6837 14.8245 24.5405 14.8001 24.4623 14.8002C24.3841 14.8002 24.2409 14.8245 24.1603 14.988L22.2603 18.8379C22.1437 19.074 21.9185 19.2376 21.6579 19.2755L17.4092 19.893C17.2289 19.9191 17.1614 20.0478 17.1372 20.1222C17.113 20.1965 17.092 20.3402 17.2224 20.4675L20.2968 23.4643C20.4853 23.6481 20.5714 23.9129 20.5268 24.1724L19.801 28.404C19.7702 28.5834 19.8717 28.6874 19.935 28.7333C19.9982 28.7794 20.1285 28.8438 20.2898 28.759L24.09 26.761Z"
            fill="#6C533B" />
        <path
            d="M17.0664 40.0001V43.2C17.0664 44.0823 17.7842 44.8001 18.6664 44.8001H24.2664C24.7083 44.8001 25.0664 45.1582 25.0664 45.6C25.0664 46.0419 24.7083 46.4 24.2664 46.4H21.2035C21.5337 47.3313 22.4234 48 23.4664 48H25.8664C27.1897 48 28.2664 46.9233 28.2664 45.6C28.2664 45.1582 28.6246 44.8001 29.0664 44.8001H30.6664C31.5487 44.8001 32.2665 44.0823 32.2665 43.2V40.0001C32.2665 39.1178 31.5487 38.4 30.6664 38.4H18.6664C17.7842 38.4 17.0664 39.1178 17.0664 40.0001Z"
            fill="#6C533B" />
        <path
            d="M11.3421 39.9278C11.2536 40.1114 11.3166 40.3318 11.4892 40.44C12.5513 41.1052 14.2605 42.075 15.4666 42.7524V40.0001C15.4666 38.5117 16.488 37.2575 17.8666 36.9014V35.3295C17.8666 35.1853 17.7953 35.056 17.6807 34.9925C13.1075 32.4502 10.2666 27.6253 10.2666 22.4002C10.2666 18.5818 11.7457 14.9844 14.4316 12.2708C17.1154 9.55922 20.6931 8.04291 24.5058 8.00109C32.2678 7.91672 38.7933 14.1495 39.058 21.8964C39.2436 27.3302 36.4074 32.3475 31.6561 34.9903C31.5393 35.0554 31.4666 35.1852 31.4666 35.329V36.9014C32.8452 37.2576 33.8666 38.5117 33.8666 40.0001V42.6437C33.9121 42.6192 33.9572 42.5948 34.0038 42.5697C35.1146 41.9707 36.7809 41.072 37.8346 40.4342C38.0107 40.3275 38.0763 40.1045 37.9868 39.9189L36.4685 36.7657C36.3133 36.4433 36.3917 36.0585 36.6583 35.8201C38.1746 34.4642 39.4416 32.877 40.4237 31.1026C40.5964 30.7909 40.9544 30.6305 41.3016 30.7101L44.7752 31.5029C44.9625 31.5457 45.1554 31.4498 45.2316 31.2734C45.7759 30.0116 46.2031 28.7075 46.5051 27.3846C46.807 26.0617 46.988 24.7013 47.045 23.3283C47.0529 23.1363 46.9207 22.9663 46.7334 22.9236L43.258 22.1303C42.909 22.0507 42.6568 21.7489 42.6371 21.3914C42.5249 19.3591 42.074 17.3791 41.2968 15.5065C41.1601 15.1771 41.2581 14.7968 41.537 14.5745L44.3215 12.3538C44.4715 12.2342 44.5168 12.0241 44.4264 11.8548C43.7794 10.6425 43.026 9.49519 42.1798 8.43394C41.3335 7.37278 40.3825 6.38297 39.3446 5.48241C39.1997 5.35669 38.9848 5.35406 38.8348 5.47369L36.0452 7.69828C35.7663 7.92075 35.3736 7.93181 35.0827 7.72481C33.4251 6.546 31.5968 5.66437 29.6487 5.10413C29.3046 5.00522 29.0667 4.69238 29.0667 4.33444V0.770062C29.0667 0.577969 28.9304 0.411187 28.7414 0.376219C27.3903 0.126375 26.0237 0 24.6666 0C23.3096 0 21.943 0.126375 20.5919 0.376219C20.4029 0.411187 20.2666 0.577875 20.2666 0.770062V4.33434C20.2666 4.69228 20.0286 5.00513 19.6846 5.10403C17.7365 5.66419 15.9082 6.54591 14.2506 7.72472C13.9597 7.93144 13.5671 7.92075 13.2881 7.69819L10.4985 5.47359C10.3485 5.35397 10.1336 5.35659 9.98868 5.48231C8.95077 6.38297 7.99977 7.37269 7.15358 8.43384C6.3074 9.495 5.55412 10.6423 4.90696 11.8547C4.81658 12.024 4.86187 12.234 5.01187 12.3537L7.79643 14.5744C8.07533 14.7968 8.1733 15.177 8.03652 15.5064C7.25952 17.3787 6.80858 19.3587 6.69627 21.3913C6.67649 21.7488 6.4244 22.0507 6.07537 22.1302L2.59996 22.9235C2.41265 22.9662 2.28046 23.1363 2.28843 23.3282C2.34543 24.7012 2.52627 26.0616 2.82833 27.3845C3.1303 28.7075 3.55762 30.0117 4.10193 31.2734C4.17805 31.4498 4.3709 31.5457 4.55821 31.5029L8.03183 30.7101C8.37927 30.6305 8.73721 30.7909 8.9098 31.1026C9.89193 32.877 11.1588 34.4641 12.6752 35.8201C12.9418 36.0585 13.0202 36.4433 12.865 36.7657L11.3421 39.9278Z"
            fill="#6C533B" />
    </g>
    <defs>
        <clipPath id="clip0_10111_4586">
            <rect width="48" height="48" fill="white" transform="translate(0.666992)" />
        </clipPath>
    </defs>
</svg>