<svg width="48" height="48" viewBox="0 0 48 48" fill="none" xmlns="http://www.w3.org/2000/svg">
    <path
        d="M45.943 45.0405H44.012V17.6304L24.0029 7.30359L3.98685 17.6373V45.0405H2.05725C1.77337 45.0405 1.54297 45.2709 1.54297 45.5548C1.54297 45.8387 1.77337 46.0691 2.05725 46.0691H45.943C46.2269 46.0691 46.4573 45.8387 46.4573 45.5548C46.4573 45.2709 46.2269 45.0405 45.943 45.0405ZM38.9651 45.0405H36.6399C36.655 44.9836 36.6749 44.9287 36.6749 44.867V39.1619C36.6749 38.7834 36.3677 38.4762 35.9891 38.4762H33.6509V39.9642C33.6509 40.2522 33.4177 40.4784 33.1366 40.4784C32.8486 40.4784 32.6223 40.2522 32.6223 39.9642V38.4762H30.284C29.9055 38.4762 29.5983 38.7834 29.5983 39.1619V44.867C29.5983 44.9287 29.6182 44.9836 29.6333 45.0405H28.5347C28.5498 44.9836 28.5697 44.9287 28.5697 44.867V39.1619C28.5697 38.7834 28.2625 38.4762 27.884 38.4762H25.5457V39.9642C25.5457 40.2522 25.3126 40.4784 25.0314 40.4784C24.7434 40.4784 24.5171 40.2522 24.5171 39.9642V38.4762H22.172C21.7935 38.4762 21.4863 38.7834 21.4863 39.1619V44.867C21.4863 44.9287 21.5062 44.9836 21.5213 45.0405H20.4227C20.4378 44.9836 20.4577 44.9287 20.4577 44.867V39.1619C20.4577 38.7834 20.1505 38.4762 19.772 38.4762H17.4337V39.9642C17.4337 40.2522 17.2074 40.4784 16.9194 40.4784C16.6383 40.4784 16.4051 40.2522 16.4051 39.9642V38.4762H14.0669C13.6883 38.4762 13.3811 38.7834 13.3811 39.1619V44.867C13.3811 44.9287 13.401 44.9836 13.4161 45.0405H9.03371V17.987H38.9651V45.0405Z"
        fill="#6C533B" />
    <path
        d="M2.45807 17.2622L23.875 6.20849C23.9538 6.16803 24.0478 6.16803 24.1266 6.20849L45.5436 17.2622C45.726 17.3561 45.9433 17.2238 45.9433 17.0188V13.3893C45.9433 13.2864 45.8857 13.1925 45.7945 13.1459L24.126 1.96186C24.0471 1.9214 23.9532 1.9214 23.8743 1.96186L2.20573 13.1459C2.11522 13.1925 2.05762 13.2864 2.05762 13.3886V17.0181C2.05762 17.2238 2.27567 17.3568 2.45807 17.2622Z"
        fill="#6C533B" />
    <path d="M10.0625 19.0156H37.9368V21.2853H10.0625V19.0156Z" fill="#6C533B" />
    <path d="M10.0625 22.3138H37.9368V24.5904H10.0625V22.3138Z" fill="#6C533B" />
    <path d="M10.0625 25.619H37.9368V27.8956H10.0625V25.619Z" fill="#6C533B" />
    <path
        d="M19.7717 30.371H17.4334V31.859C17.4334 32.147 17.2071 32.3733 16.9191 32.3733C16.638 32.3733 16.4049 32.147 16.4049 31.859V30.371H14.0666C13.6881 30.371 13.3809 30.6782 13.3809 31.0567V36.7618C13.3809 37.1403 13.6881 37.4475 14.0666 37.4475H19.7717C20.1502 37.4475 20.4574 37.1403 20.4574 36.7618V31.0567C20.4574 30.6782 20.1509 30.371 19.7717 30.371Z"
        fill="#6C533B" />
    <path
        d="M27.884 30.371H25.5458V31.859C25.5458 32.147 25.3126 32.3733 25.0315 32.3733C24.7435 32.3733 24.5172 32.147 24.5172 31.859V30.371H22.172C21.7935 30.371 21.4863 30.6782 21.4863 31.0567V36.7618C21.4863 37.1403 21.7935 37.4475 22.172 37.4475H27.884C28.2626 37.4475 28.5698 37.1403 28.5698 36.7618V31.0567C28.5698 30.6782 28.2632 30.371 27.884 30.371Z"
        fill="#6C533B" />
</svg>