<svg width="49" height="48" viewBox="0 0 49 48" fill="none" xmlns="http://www.w3.org/2000/svg">
    <path fill-rule="evenodd" clip-rule="evenodd"
        d="M9.71148 9.21074V4.56665C9.71148 3.50812 10.5748 2.64478 11.6334 2.64478H45.4736C46.5322 2.64478 47.3955 3.50812 47.3955 4.56665V28.3193C47.3955 29.3778 46.5321 30.2412 45.4736 30.2412H40.8295V13.0076C40.8295 10.9143 39.126 9.21074 37.0327 9.21074H9.71148ZM3.19238 11.0857C2.13385 11.0857 1.27051 11.9491 1.27051 13.0076V37.4522C1.27051 38.5107 2.13385 39.3741 3.19238 39.3741H9.71148V44.8849C9.71148 45.0732 9.81535 45.2342 9.98691 45.3119C10.1585 45.3896 10.348 45.3613 10.4895 45.2371L17.165 39.3741H37.0328C38.0913 39.3741 38.9546 38.5107 38.9546 37.4522V13.0076C38.9546 11.9491 38.0913 11.0857 37.0328 11.0857H3.19238ZM28.8717 26.7832C29.2119 26.7832 29.4876 26.5075 29.4876 26.1674V24.2925C29.4876 23.9524 29.2119 23.6767 28.8717 23.6767C27.0255 23.6767 26.0992 21.4401 27.4045 20.1347C27.645 19.8942 27.645 19.5042 27.4045 19.2637L26.0787 17.9379C25.8383 17.6975 25.4483 17.6975 25.2078 17.9379C23.9024 19.2433 21.6658 18.3171 21.6658 16.4708C21.6658 16.1306 21.39 15.855 21.05 15.855H19.1751C18.835 15.855 18.5592 16.1306 18.5592 16.4708C18.5592 18.3171 16.3226 19.2434 15.0172 17.9379C14.7767 17.6975 14.3867 17.6975 14.1462 17.9379L12.8205 19.2637C12.58 19.5042 12.58 19.8942 12.8205 20.1347C14.1259 21.4401 13.1995 23.6767 11.3534 23.6767C11.0132 23.6767 10.7376 23.9525 10.7376 24.2925V26.1674C10.7376 26.5074 11.0132 26.7832 11.3534 26.7832C13.1995 26.7832 14.1259 29.0198 12.8205 30.3252C12.58 30.5657 12.58 30.9557 12.8205 31.1962L14.1463 32.522C14.3868 32.7624 14.7768 32.7624 15.0173 32.522C16.3243 31.2149 18.5593 32.1406 18.5593 33.9891C18.5593 34.3293 18.8351 34.6049 19.1752 34.6049H21.0501C21.3901 34.6049 21.6659 34.3294 21.6659 33.9891C21.6659 32.1428 23.9025 31.2166 25.2079 32.522C25.4484 32.7624 25.8384 32.7624 26.0788 32.522L27.4046 31.1962C27.6451 30.9557 27.6451 30.5657 27.4046 30.3252C26.0992 29.0198 27.0255 26.7832 28.8717 26.7832ZM20.1126 21.3027C17.9437 21.3027 16.1854 23.061 16.1854 25.2299C16.1854 27.3988 17.9437 29.1571 20.1126 29.1571C22.2815 29.1571 24.0398 27.3988 24.0398 25.2299C24.0398 23.061 22.2815 21.3027 20.1126 21.3027Z"
        fill="#6C533B" />
</svg>