<svg width="4" height="8" viewBox="0 0 4 8" fill="none" xmlns="http://www.w3.org/2000/svg">
<path d="M0.792627 7.35476L3.89862 4.25799C3.93548 4.22112 3.96154 4.18118 3.97677 4.13817C3.99226 4.09516 4 4.04908 4 3.99992C4 3.95077 3.99226 3.90469 3.97677 3.86168C3.96154 3.81866 3.93548 3.77873 3.89862 3.74186L0.792627 0.635868C0.706605 0.549847 0.599078 0.506836 0.470046 0.506836C0.341014 0.506836 0.230415 0.552919 0.138249 0.645085C0.046083 0.737251 0 0.844778 0 0.967665C0 1.09055 0.046083 1.19808 0.138249 1.29025L2.84793 3.99992L0.138249 6.7096C0.0522275 6.79562 0.00921655 6.90155 0.00921655 7.02739C0.00921655 7.15347 0.0552995 7.2626 0.147465 7.35476C0.239631 7.44693 0.347158 7.49301 0.470046 7.49301C0.592934 7.49301 0.700461 7.44693 0.792627 7.35476Z" fill="white"/>
</svg>
