<svg xmlns="http://www.w3.org/2000/svg" width="25" height="24" viewBox="0 0 25 24" fill="none">
    <path
        d="M16.6835 2H8.6135C7.03666 2.00185 5.52494 2.62914 4.41003 3.74424C3.29513 4.85933 2.66809 6.37115 2.6665 7.948L2.6665 16.018C2.66836 17.5948 3.29565 19.1066 4.41074 20.2215C5.52583 21.3364 7.03766 21.9634 8.6145 21.965H16.6845C18.2614 21.9631 19.7731 21.3359 20.888 20.2208C22.0029 19.1057 22.6299 17.5938 22.6315 16.017V7.947C22.6297 6.37015 22.0024 4.85844 20.8873 3.74353C19.7722 2.62862 18.2604 2.00159 16.6835 2V2ZM20.6235 16.017C20.6235 16.5344 20.5216 17.0468 20.3236 17.5248C20.1256 18.0028 19.8354 18.4371 19.4695 18.803C19.1036 19.1689 18.6693 19.4591 18.1913 19.6571C17.7133 19.8551 17.2009 19.957 16.6835 19.957H8.6135C7.56872 19.9567 6.56683 19.5415 5.82815 18.8026C5.08947 18.0638 4.6745 17.0618 4.6745 16.017V7.947C4.67477 6.90222 5.08999 5.90032 5.82886 5.16165C6.56772 4.42297 7.56972 4.008 8.6145 4.008H16.6845C17.7293 4.00827 18.7312 4.42349 19.4699 5.16235C20.2085 5.90122 20.6235 6.90322 20.6235 7.948V16.018V16.017Z"
        fill="#1C1917" />
    <path
        d="M12.6483 6.81909C11.2798 6.82121 9.96786 7.36588 9.00023 8.3337C8.03259 9.30152 7.48818 10.6135 7.48633 11.9821C7.48792 13.351 8.03235 14.6634 9.00023 15.6315C9.96811 16.5996 11.2804 17.1442 12.6493 17.1461C14.0184 17.1445 15.331 16.5999 16.2991 15.6318C17.2672 14.6637 17.8117 13.3512 17.8133 11.9821C17.8112 10.6132 17.2663 9.30098 16.298 8.33329C15.3298 7.3656 14.0172 6.82141 12.6483 6.82009V6.81909ZM12.6483 15.1381C11.8116 15.1381 11.0091 14.8057 10.4174 14.214C9.82573 13.6223 9.49333 12.8198 9.49333 11.9831C9.49333 11.1463 9.82573 10.3438 10.4174 9.75217C11.0091 9.16049 11.8116 8.82809 12.6483 8.82809C13.4851 8.82809 14.2876 9.16049 14.8793 9.75217C15.4709 10.3438 15.8033 11.1463 15.8033 11.9831C15.8033 12.8198 15.4709 13.6223 14.8793 14.214C14.2876 14.8057 13.4851 15.1381 12.6483 15.1381Z"
        fill="#1C1917" />
    <path
        d="M17.8224 8.09509C18.5056 8.09509 19.0594 7.54127 19.0594 6.85809C19.0594 6.17492 18.5056 5.62109 17.8224 5.62109C17.1393 5.62109 16.5854 6.17492 16.5854 6.85809C16.5854 7.54127 17.1393 8.09509 17.8224 8.09509Z"
        fill="#1C1917" />
</svg>