<svg width="349" height="72" viewBox="0 0 349 72" fill="none" xmlns="http://www.w3.org/2000/svg">
    <g clip-path="url(#clip0_11984_1177)">
        <path
            d="M140.161 19.9701C140.161 18.351 140.161 16.7318 140.161 15.2205C140.269 13.1695 140.485 11.2265 141.781 9.49938C142.645 8.41992 143.617 7.66429 144.913 7.34045C146.424 6.90867 147.936 6.80072 149.448 6.80072C151.284 6.80072 153.227 6.90867 155.063 6.80072C156.791 6.69278 158.519 6.90867 160.138 7.4484C161.866 8.09608 163.162 9.39143 163.702 11.2265C164.242 12.8457 164.458 14.5728 164.242 16.3C164.134 17.0556 164.458 17.1635 165.105 17.1635C167.157 17.1635 169.101 17.1635 171.152 17.1635C172.34 17.1635 173.636 17.0556 174.824 17.4874C175.148 17.5953 175.472 17.5953 175.796 17.4874C179.143 16.7318 182.599 17.2715 185.946 17.1635C187.134 17.1635 188.322 17.1635 189.51 17.4874C189.726 17.5953 190.049 17.5953 190.373 17.4874C192.857 16.7318 195.449 17.1635 197.932 17.0556C200.2 17.0556 202.575 16.8397 204.843 17.5953C206.895 18.243 208.299 19.6463 208.838 21.6973C209.162 22.6688 209.054 22.6688 209.81 22.0211C212.402 19.6463 215.425 18.351 218.881 17.8112C219.421 17.7033 220.069 17.4874 220.609 17.4874C221.472 17.4874 221.472 17.0556 221.472 16.4079C221.472 14.7887 221.472 13.2775 221.904 11.6583C222.66 8.8517 224.496 7.34045 227.303 6.80072C228.383 6.58483 229.463 6.58483 230.435 6.58483C232.379 6.58483 234.43 6.69278 236.374 6.58483C238.102 6.47689 239.829 6.69278 241.449 7.23251C243.069 7.88018 244.365 9.06759 245.013 10.7947C245.769 12.9536 245.877 15.2205 245.661 17.4874C249.98 16.5159 254.299 17.1635 258.51 16.9477C258.942 16.9477 259.266 17.0556 259.698 17.1635C260.346 17.3794 260.994 17.3794 261.75 17.1635C262.398 16.9477 263.154 16.9477 263.91 16.9477C266.501 16.9477 269.093 16.9477 271.684 16.9477C272.332 16.9477 272.548 16.7318 272.548 16.0841C272.44 14.4649 272.548 12.8457 273.088 11.3345C273.736 9.06759 275.248 7.66429 277.515 7.01662C278.811 6.58483 280.215 6.47689 281.619 6.58483C283.67 6.58483 285.722 6.69278 287.882 6.58483C289.502 6.47689 291.121 6.69278 292.633 7.23251C294.253 7.88018 295.441 9.06759 296.088 10.7947C296.844 12.7378 296.736 14.6808 296.736 16.7318C296.736 17.8112 296.736 18.7827 296.736 20.186C299.544 17.7033 302.891 17.2715 306.131 16.5159C308.506 15.9761 310.882 16.3 313.366 16.7318C317.037 17.4874 320.385 18.8907 323.192 21.4814C326.54 24.5039 328.915 28.174 329.671 32.7078C329.779 33.4634 330.103 33.3554 330.535 33.2475C331.831 32.9237 333.127 32.3839 334.422 32.3839C337.338 32.168 340.145 32.8157 342.737 34.4349C344.141 35.2985 345.329 36.3779 346.408 37.7812C348.352 40.3719 349.108 43.2865 349.108 46.309C349.108 51.4904 345.005 56.8877 340.361 58.3989C336.906 59.4784 333.558 59.4784 330.319 58.291C328.051 57.4274 326.108 55.9162 324.704 53.8652C324.056 53.0016 324.164 53.0016 323.3 53.7572C321.572 55.3764 319.521 56.7797 317.253 57.5354C314.122 58.5069 310.99 59.4784 307.751 59.0466C303.863 58.6148 299.976 57.7513 296.736 55.2685C296.304 54.9447 296.088 54.8367 295.764 55.3764C294.361 57.8592 291.877 58.5069 289.286 58.6148C286.262 58.7228 283.347 58.6148 280.323 58.6148C280.215 58.6148 280.107 58.6148 279.999 58.6148C278.595 58.0751 278.163 58.9387 277.515 60.0181C274.816 65.0916 270.821 68.6538 265.313 70.4889C263.154 71.2445 260.994 71.6763 258.726 71.8922C256.459 72.1081 254.299 71.4604 252.14 70.9207C250.952 70.5968 249.872 70.4889 248.792 69.8412C246.956 68.7617 246.092 67.1426 245.553 65.1995C245.121 63.2565 245.337 61.3135 245.229 59.3704C245.229 59.0466 245.445 58.6148 244.797 58.7228C242.421 59.3704 240.261 58.7228 237.994 58.291C233.566 57.4274 229.895 55.2685 226.764 51.9222C226.332 51.4904 225.9 50.9507 225.468 50.4109C224.496 51.7063 223.632 53.1096 222.444 54.189C219.529 56.8877 215.965 58.291 212.186 58.8307C210.89 59.0466 209.702 59.2625 208.407 59.1545C207.651 59.0466 207.219 59.3704 206.787 60.1261C204.519 64.336 201.172 67.4664 196.96 69.6253C194.477 70.9207 191.669 71.3524 188.97 71.7842C185.406 72.324 181.951 71.2445 178.711 70.0571C176.876 69.4094 175.688 67.8982 175.148 65.9551C174.608 63.9042 174.608 61.7453 174.608 59.6943C174.608 58.9387 174.5 58.6148 173.636 58.6148C171.476 58.7228 169.317 58.6148 167.157 58.6148C165.213 58.7228 163.378 58.291 161.542 57.8592C161.218 57.7512 161.002 57.7512 160.678 57.8592C158.842 58.3989 157.115 58.7228 155.171 58.7228C153.119 58.6148 150.96 58.7228 148.908 58.7228C147.936 58.7228 146.964 58.7228 145.993 58.3989C144.805 58.0751 143.617 57.8592 142.429 58.3989C141.133 58.8307 139.838 58.8307 138.542 58.8307C136.49 58.8307 134.438 58.8307 132.387 58.8307C131.307 58.8307 130.227 58.8307 129.255 58.5069C128.823 58.3989 128.391 58.291 127.959 58.5069C126.772 58.9387 125.692 58.9387 124.504 58.9387C122.452 58.9387 120.401 58.8307 118.349 58.9387C116.729 59.0466 115.217 58.7228 113.706 58.291C112.41 57.9671 111.438 57.1036 110.682 55.9162C110.358 55.3764 110.034 55.1605 109.494 55.7003C106.795 58.183 103.447 59.2625 99.9919 59.5863C93.405 60.342 87.5739 58.3989 83.0386 53.4334C82.9307 53.3255 82.8227 53.1096 82.6067 53.1096C82.3907 53.1096 82.3907 53.3255 82.3907 53.4334C81.8508 56.7797 79.5832 58.291 76.4517 58.7228C75.9118 58.8307 75.3719 58.9387 74.832 58.9387C72.2404 58.9387 69.6488 58.9387 67.0572 58.9387C65.4375 58.9387 63.9257 58.7228 62.5219 58.183C60.9022 57.5354 59.7144 56.24 59.0665 54.4049C58.5266 52.7857 58.5266 51.1665 58.5266 49.5474C58.5266 41.8832 58.3106 34.327 58.6346 26.7707C58.8505 20.6178 61.3341 15.3285 66.3013 11.3345C70.2967 8.20402 74.832 6.58483 79.9071 6.58483C82.3907 6.58483 84.8743 7.34046 86.2781 9.82321C87.034 11.1186 87.25 12.5219 87.358 13.9252C87.4659 14.8967 87.4659 15.9761 87.358 17.0556C87.358 17.7033 87.4659 17.9192 88.1138 17.8112C90.1655 17.8112 92.2172 17.8112 94.3768 17.8112C95.1327 17.8112 95.7806 17.8112 96.5365 18.0271C97.2924 18.243 97.9403 18.243 98.6961 18.0271C99.344 17.8112 100.1 17.8112 100.856 17.8112C103.231 17.8112 105.715 17.9192 108.091 17.8112C109.71 17.7033 111.33 18.0271 112.842 18.4589C113.814 18.7827 114.786 19.5384 115.433 20.4019C116.081 21.3734 116.189 21.4814 117.161 20.6178C119.861 18.243 123.208 17.3794 126.664 16.8397C131.307 16.192 135.734 17.3794 139.73 19.8622C139.838 19.9701 140.053 20.0781 140.161 20.186C139.946 19.9701 139.946 19.9701 140.161 19.9701ZM157.547 33.6793C157.655 33.5713 157.655 33.5713 157.547 33.4634C157.547 27.9581 157.547 22.345 157.547 16.8397C157.547 15.7602 157.547 14.7887 157.547 13.7093C157.439 13.3854 157.223 13.4934 157.115 13.4934C153.983 13.4934 150.744 13.4934 147.612 13.4934C147.396 13.4934 147.18 13.3854 147.18 13.7093C147.18 13.9252 147.18 14.1411 147.18 14.3569C147.18 26.4469 147.18 38.5369 147.18 50.6268C147.18 50.8427 147.18 51.0586 147.18 51.2745C147.18 51.3824 147.072 51.5983 147.288 51.5983C147.396 51.5983 147.396 51.5983 147.504 51.5983C150.744 51.5983 153.983 51.5983 157.331 51.5983C157.439 51.5983 157.439 51.5983 157.547 51.5983C157.763 51.5983 157.655 51.3824 157.655 51.2745C157.655 45.4454 157.655 39.6163 157.547 33.6793ZM252.14 54.9447C252.14 57.8592 252.14 60.6658 252.14 63.5803C252.14 64.0121 252.355 64.1201 252.679 64.228C256.135 65.3075 259.59 65.4154 263.154 64.228C269.309 62.0691 273.088 56.4559 273.196 49.4394C273.304 41.1276 273.196 32.9237 273.196 24.6118C273.196 23.9641 272.98 23.8562 272.44 23.8562C269.525 23.8562 266.501 23.8562 263.586 23.8562C262.83 23.8562 262.614 23.9641 262.614 24.7198C262.614 29.2535 262.614 33.7872 262.614 38.213C262.614 38.7528 262.614 39.2925 262.506 39.8322C262.182 40.8037 261.534 41.3435 260.562 41.2355C259.482 41.2355 258.834 40.6958 258.726 39.6163C258.618 39.1845 258.618 38.6448 258.618 38.213C258.618 33.7872 258.618 29.2535 258.618 24.8277C258.618 24.0721 258.51 23.8562 257.647 23.8562C254.731 23.9641 251.924 23.8562 249.008 23.8562C248.252 23.8562 248.144 24.0721 248.144 24.8277C248.144 30.225 248.144 35.6223 248.144 41.0196C248.144 42.0991 248.144 43.1785 248.36 44.1501C249.44 49.7632 254.515 53.0016 259.806 51.2745C260.67 50.9506 261.426 50.6268 262.29 50.195C261.642 54.7288 258.187 56.348 252.14 54.9447ZM191.777 50.195C190.913 54.297 187.674 56.348 183.786 55.5923C183.247 55.4844 182.707 55.3764 182.275 55.1605C181.735 54.9447 181.627 55.0526 181.627 55.5923C181.627 58.183 181.627 60.7737 181.627 63.3644C181.627 63.7962 181.735 64.1201 182.275 64.228C187.782 65.8472 192.965 65.1995 197.392 61.3135C201.172 58.0751 202.683 53.8652 202.683 49.0076C202.683 40.9117 202.683 32.7078 202.683 24.6118C202.683 23.9641 202.467 23.8562 201.928 23.8562C199.012 23.8562 195.989 23.8562 193.073 23.8562C192.317 23.8562 192.209 24.0721 192.209 24.7198C192.209 29.2535 192.209 33.7872 192.209 38.213C192.209 38.7528 192.209 39.2925 192.101 39.8322C191.777 40.8037 191.129 41.3435 190.157 41.3435C189.078 41.3435 188.43 40.8037 188.322 39.7243C188.214 39.2925 188.214 38.7527 188.214 38.321C188.214 33.7872 188.214 29.2535 188.214 24.7198C188.214 24.0721 188.106 23.8562 187.458 23.8562C184.542 23.8562 181.519 23.8562 178.603 23.8562C177.847 23.8562 177.739 24.0721 177.739 24.7198C177.739 30.1171 177.739 35.5144 177.739 41.0196C177.739 42.4229 177.847 43.7183 178.171 45.0136C179.467 49.4394 182.923 51.9222 187.458 51.7063C188.862 51.5983 190.265 50.9506 191.777 50.195ZM109.926 33.1396C109.926 30.4409 109.926 27.7423 109.926 25.0436C109.926 24.3959 109.71 24.288 109.17 24.288C106.255 24.288 103.231 24.288 100.316 24.288C99.56 24.288 99.452 24.6118 99.452 25.2595C99.452 30.0091 99.452 34.7587 99.452 39.5084C99.452 39.9402 99.452 40.3719 99.452 40.6958C99.344 41.7752 98.5882 42.4229 97.5083 42.4229C96.4285 42.4229 95.7806 41.8832 95.6726 40.6958C95.5646 40.264 95.5646 39.7243 95.5646 39.2925C95.5646 34.5429 95.5646 29.7932 95.5646 25.1515C95.5646 24.5039 95.4566 24.288 94.7008 24.288C91.6772 24.288 88.7617 24.288 85.7382 24.288C85.0903 24.288 84.9823 24.5039 84.9823 25.0436C84.9823 29.6853 84.9823 34.327 84.9823 39.0766C84.9823 40.156 85.0903 41.2355 85.1983 42.207C86.2781 49.7632 92.973 53.9731 100.1 52.4619C105.499 51.3824 109.602 46.4169 109.818 40.9117C110.034 38.4289 109.926 35.7303 109.926 33.1396ZM116.081 42.8547C116.081 45.8772 116.081 48.3599 116.081 50.8427C116.081 51.5983 116.189 51.8142 117.053 51.8142C119.969 51.8142 122.776 51.8142 125.692 51.8142C126.448 51.8142 126.664 51.7063 126.664 50.9507C126.664 46.201 126.664 41.4514 126.664 36.7018C126.664 36.162 126.664 35.7303 126.772 35.1905C126.988 34.219 127.527 33.7872 128.607 33.6793C129.687 33.6793 130.227 34.1111 130.551 35.0826C130.659 35.5144 130.659 36.0541 130.659 36.4859C130.659 41.3435 130.659 46.0931 130.659 50.9507C130.659 51.5983 130.875 51.8142 131.523 51.8142C134.438 51.8142 137.462 51.8142 140.377 51.8142C141.133 51.8142 141.241 51.5983 141.241 50.9507C141.241 46.8487 141.241 42.7467 141.241 38.6448C141.241 36.9177 141.241 35.2985 140.917 33.5713C139.946 27.0946 134.87 22.9926 128.067 23.3165C122.02 23.5324 116.837 28.6058 116.297 34.6508C115.973 37.4574 116.189 40.3719 116.081 42.8547ZM315.309 39.5084C317.685 39.5084 320.169 39.5084 322.544 39.5084C323.084 39.5084 323.3 39.4004 323.3 38.7528C323.408 37.0256 323.3 35.2985 322.868 33.5713C321.14 26.9866 315.093 22.7767 307.859 23.3165C301.92 23.7483 297.6 26.7707 295.333 32.168C293.065 37.6733 293.821 42.9626 297.816 47.4964C302.783 53.1096 311.53 53.9731 317.577 49.5474C317.901 49.3315 318.225 49.2235 317.793 48.6838C315.957 46.6328 314.23 44.4739 312.502 42.315C312.178 41.9911 312.07 41.8832 311.746 42.315C309.694 44.3659 306.671 43.7183 305.483 40.9117C304.619 38.7528 304.619 36.5938 305.375 34.4349C305.699 33.5713 306.239 32.9237 306.887 32.276C308.938 30.6568 311.962 31.5204 312.61 34.0031C312.718 34.4349 312.61 34.6508 312.178 34.5429C310.882 34.5429 309.478 34.5429 308.183 34.5429C307.643 34.5429 307.427 34.6508 307.319 35.1905C306.995 36.3779 306.887 37.6733 307.211 38.8607C307.319 39.4004 307.535 39.5084 308.075 39.5084C310.45 39.5084 312.934 39.5084 315.309 39.5084ZM65.3295 38.8607C65.3295 42.8547 65.3295 46.9566 65.3295 50.9507C65.3295 51.5983 65.5454 51.7063 66.0854 51.7063C69.1089 51.7063 72.0244 51.7063 75.0479 51.7063C75.6958 51.7063 75.9118 51.4904 75.9118 50.8427C75.9118 47.8202 75.9118 44.7977 75.9118 41.7752C75.9118 41.2355 76.0198 40.9117 76.6677 41.0196C77.7475 41.1276 78.8273 41.0196 79.9071 41.0196C80.4471 41.0196 80.555 40.9117 80.555 40.3719C80.555 37.1336 80.555 33.8952 80.555 30.6568C80.555 30.1171 80.4471 29.9012 79.9071 30.0091C78.8273 30.0091 77.6395 30.0091 76.5597 30.0091C76.3437 30.0091 76.0198 30.1171 75.9118 29.6853C75.3719 26.7707 77.0996 24.5039 80.1231 24.18C80.555 24.18 80.663 24.0721 80.663 23.6403C80.663 20.294 80.663 17.0556 80.663 13.7093C80.663 13.2775 80.555 13.1695 80.0151 13.0616C78.5034 13.0616 76.9916 13.1695 75.4799 13.7093C69.4328 15.7602 65.5454 20.8337 65.4375 27.3105C65.3295 31.0886 65.3295 34.9746 65.3295 38.8607ZM228.383 26.5548C228.491 30.5489 228.383 34.4349 228.491 38.4289C228.599 41.9911 229.679 45.3375 232.379 47.9282C235.402 50.9507 239.074 52.1381 243.285 52.1381C243.933 52.1381 243.825 51.7063 243.825 51.3824C243.825 48.252 243.825 45.2295 243.825 42.0991C243.825 41.3435 243.609 41.1276 242.853 41.0196C240.261 40.8037 239.29 39.8322 238.966 37.2415C238.966 36.8097 238.858 36.3779 238.858 36.0541C238.75 35.5144 238.966 35.2985 239.506 35.2985C240.585 35.2985 241.665 35.2985 242.853 35.2985C243.393 35.2985 243.609 35.1905 243.609 34.6508C243.609 31.4124 243.609 28.0661 243.609 24.8277C243.609 24.3959 243.501 24.18 243.069 24.288C241.989 24.288 241.017 24.288 239.937 24.288C239.182 24.288 238.858 24.18 238.858 23.3165C238.966 20.294 238.858 17.3794 238.858 14.3569C238.858 13.7093 238.642 13.4934 237.994 13.4934C235.078 13.4934 232.163 13.4934 229.247 13.4934C228.491 13.4934 228.275 13.6013 228.275 14.3569C228.383 18.4589 228.383 22.5608 228.383 26.5548ZM289.825 32.7078C289.825 26.5548 289.825 20.5099 289.825 14.3569C289.825 13.6013 289.609 13.4934 288.962 13.4934C286.046 13.4934 283.023 13.4934 280.107 13.4934C279.567 13.4934 279.243 13.4934 279.243 14.249C279.243 26.4469 279.243 38.7528 279.243 50.9507C279.243 51.5983 279.459 51.7063 279.999 51.7063C282.915 51.7063 285.938 51.7063 288.854 51.7063C289.609 51.7063 289.717 51.4904 289.717 50.7348C289.825 44.7977 289.825 38.7527 289.825 32.7078ZM205.923 46.9566C205.923 48.5758 205.923 50.0871 205.923 51.7063C205.923 52.354 206.031 52.5698 206.787 52.5698C208.083 52.4619 209.378 52.5698 210.782 52.354C215.425 51.8142 218.773 49.5474 220.717 45.2295C221.58 43.1785 222.012 41.0196 222.228 38.8607C222.552 36.27 223.2 35.6223 225.684 35.4064C226.116 35.4064 226.224 35.1905 226.224 34.7587C226.224 31.5204 226.224 28.174 226.224 24.9357C226.224 24.6118 226.116 24.3959 225.684 24.3959C223.632 24.5039 221.472 24.288 219.421 24.7198C214.993 25.7992 212.078 28.9297 211.646 33.4634C211.538 34.8667 211.43 36.162 211.322 37.5653C211.106 40.0481 210.026 41.0196 207.651 41.4514C207.435 41.4514 207.111 41.5593 206.895 41.5593C206.247 41.4514 206.031 41.7752 206.139 42.4229C205.923 43.8262 205.923 45.3375 205.923 46.9566ZM176.12 51.7063C176.012 51.3824 175.904 51.1665 175.796 50.8427C173.528 45.4454 171.152 40.156 168.885 34.7587C168.669 34.219 168.669 33.7872 168.993 33.2475C170.505 30.4409 171.908 27.5264 173.312 24.7198C173.42 24.5039 173.636 24.288 173.528 23.8562C170.073 23.8562 166.617 23.8562 163.162 23.8562C162.73 23.8562 162.622 24.0721 162.406 24.3959C161.002 27.2025 159.598 30.1171 158.195 32.9237C157.979 33.3554 157.979 33.6793 158.195 34.1111C160.246 39.7243 162.298 45.3375 164.242 51.0586C164.35 51.3824 164.458 51.7063 164.997 51.7063C168.669 51.7063 172.34 51.7063 176.12 51.7063ZM335.502 52.4619C339.282 52.4619 342.197 49.5474 342.197 45.8772C342.197 42.0991 339.174 39.0766 335.502 39.0766C331.723 39.0766 328.915 41.9911 328.915 45.7692C328.807 49.7632 331.615 52.4619 335.502 52.4619Z"
            fill="#191848" />
        <path
            d="M252.139 54.9446C258.186 56.3479 261.642 54.7287 262.29 50.3029C261.426 50.6267 260.67 51.0585 259.806 51.3823C254.623 53.1095 249.44 49.8711 248.36 44.2579C248.144 43.1784 248.144 42.099 248.144 41.1275C248.144 35.7302 248.144 30.3329 248.144 24.9356C248.144 24.1799 248.252 23.9641 249.008 23.9641C251.923 23.9641 254.731 23.9641 257.647 23.9641C258.51 23.9641 258.618 24.1799 258.618 24.9356C258.618 29.3614 258.618 33.8951 258.618 38.3209C258.618 38.7527 258.618 39.2924 258.726 39.7242C258.942 40.8036 259.59 41.3434 260.562 41.3434C261.534 41.3434 262.182 40.9116 262.506 39.9401C262.614 39.4003 262.614 38.8606 262.614 38.3209C262.614 33.7871 262.614 29.2534 262.614 24.8276C262.614 24.072 262.83 23.8561 263.586 23.9641C266.501 23.9641 269.525 23.9641 272.44 23.9641C272.98 23.9641 273.196 24.072 273.196 24.7197C273.196 33.0315 273.304 41.2354 273.196 49.5473C273.088 56.5638 269.201 62.1769 263.154 64.3359C259.698 65.5233 256.243 65.4153 252.679 64.3359C252.355 64.2279 252.139 64.12 252.139 63.6882C252.139 60.7736 252.139 57.8591 252.139 54.9446Z"
            fill="#F2EDE1" />
        <path
            d="M191.777 50.1952C190.265 51.0588 188.862 51.7065 187.242 51.7065C182.707 51.9224 179.251 49.4396 177.955 45.0138C177.631 43.7185 177.523 42.4231 177.523 41.0198C177.523 35.6225 177.523 30.2252 177.523 24.72C177.523 24.0723 177.631 23.7484 178.387 23.8564C181.303 23.8564 184.326 23.8564 187.242 23.8564C187.89 23.8564 187.998 24.0723 187.998 24.72C187.998 29.2537 187.998 33.7874 187.998 38.3212C187.998 38.7529 187.998 39.2927 188.106 39.7245C188.322 40.8039 188.97 41.3436 189.941 41.3436C190.913 41.3436 191.561 40.8039 191.885 39.8324C191.993 39.2927 191.993 38.7529 191.993 38.2132C191.993 33.6795 191.993 29.1457 191.993 24.72C191.993 23.9643 192.209 23.8564 192.857 23.8564C195.773 23.8564 198.796 23.8564 201.712 23.8564C202.251 23.8564 202.575 23.9643 202.467 24.612C202.467 32.708 202.467 40.9119 202.467 49.0078C202.467 53.8654 200.956 58.0753 197.176 61.3137C192.641 65.1997 187.566 65.8474 182.059 64.2282C181.627 64.1203 181.411 63.7964 181.411 63.3646C181.411 60.7739 181.411 58.1832 181.411 55.5925C181.411 55.0528 181.519 54.9448 182.059 55.1607C182.599 55.3766 183.031 55.4846 183.57 55.5925C187.674 56.3481 190.805 54.2972 191.777 50.1952Z"
            fill="#F2EDE1" />
        <path
            d="M109.926 33.1397C109.926 35.7304 110.034 38.429 109.926 41.0197C109.71 46.525 105.607 51.3825 100.208 52.5699C93.081 54.0812 86.3861 49.8713 85.3063 42.2071C85.1983 41.1277 85.0903 40.0482 85.0903 39.0767C85.0903 34.435 85.0903 29.7933 85.0903 25.0437C85.0903 24.396 85.1983 24.2881 85.8462 24.2881C88.8697 24.2881 91.7853 24.2881 94.8088 24.2881C95.4567 24.2881 95.6726 24.504 95.6726 25.1517C95.6726 29.9013 95.6726 34.6509 95.6726 39.2926C95.6726 39.7244 95.6726 40.2641 95.7806 40.6959C95.8886 41.7753 96.5365 42.423 97.6163 42.423C98.6961 42.423 99.344 41.8833 99.56 40.6959C99.56 40.2641 99.56 39.8323 99.56 39.5085C99.56 34.7589 99.56 30.0092 99.56 25.2596C99.56 24.6119 99.668 24.2881 100.424 24.2881C103.339 24.396 106.363 24.2881 109.278 24.2881C109.926 24.2881 110.034 24.396 110.034 25.0437C110.034 27.7424 110.034 30.441 109.926 33.1397Z"
            fill="#F2EDE1" />
        <path
            d="M116.081 42.8545C116.189 40.4797 115.973 37.5651 116.189 34.5426C116.729 28.4977 121.912 23.5321 127.959 23.2083C134.654 22.8845 139.729 26.9864 140.809 33.4632C141.025 35.1903 141.133 36.8095 141.133 38.5366C141.133 42.6386 141.133 46.7405 141.133 50.8425C141.133 51.4902 141.025 51.7061 140.269 51.7061C137.354 51.7061 134.33 51.7061 131.415 51.7061C130.767 51.7061 130.551 51.5981 130.551 50.8425C130.551 45.9849 130.551 41.2353 130.551 36.3777C130.551 35.9459 130.551 35.4062 130.443 34.9744C130.227 34.0029 129.579 33.4632 128.499 33.5711C127.527 33.5711 126.987 34.0029 126.663 35.0824C126.555 35.6221 126.555 36.0539 126.555 36.5936C126.555 41.3432 126.555 46.0929 126.555 50.8425C126.555 51.5981 126.339 51.7061 125.584 51.7061C122.668 51.7061 119.861 51.7061 116.945 51.7061C116.189 51.7061 115.973 51.4902 115.973 50.7345C116.081 48.3597 116.081 45.877 116.081 42.8545Z"
            fill="#F2EDE1" />
        <path
            d="M315.31 39.5081C312.934 39.5081 310.45 39.5081 308.075 39.5081C307.535 39.5081 307.319 39.2922 307.211 38.8605C306.995 37.5651 306.995 36.3777 307.319 35.1903C307.427 34.6506 307.751 34.5426 308.183 34.5426C309.478 34.5426 310.882 34.5426 312.178 34.5426C312.718 34.5426 312.718 34.4347 312.61 34.0029C311.962 31.5201 308.939 30.6566 306.887 32.2757C306.239 32.8155 305.699 33.5711 305.375 34.4347C304.619 36.5936 304.619 38.7525 305.483 40.9114C306.671 43.718 309.694 44.4736 311.746 42.3147C312.07 41.9909 312.286 41.9909 312.502 42.3147C314.23 44.4736 315.957 46.5246 317.793 48.6835C318.225 49.2233 317.793 49.3312 317.577 49.5471C311.53 53.9729 302.784 53.2173 297.816 47.4961C293.821 42.9624 293.065 37.5651 295.333 32.1678C297.6 26.7705 301.92 23.748 307.859 23.3162C315.094 22.8844 321.033 26.9864 322.868 33.5711C323.3 35.2982 323.408 37.0254 323.3 38.7525C323.3 39.2922 323.084 39.5081 322.544 39.5081C320.169 39.5081 317.793 39.5081 315.31 39.5081Z"
            fill="#F2EDE1" />
        <path
            d="M65.3297 38.8607C65.3297 34.9746 65.2217 31.0885 65.3297 27.2025C65.4376 20.8337 69.325 15.6523 75.3721 13.6013C76.8838 13.0616 78.3956 12.9536 79.9073 12.9536C80.3393 12.9536 80.5552 13.0616 80.5552 13.6013C80.5552 16.9476 80.5552 20.186 80.5552 23.5323C80.5552 23.9641 80.4472 24.0721 80.0153 24.0721C77.0998 24.2879 75.2641 26.6628 75.804 29.5773C75.912 30.0091 76.1279 29.9011 76.4519 29.9011C77.5317 29.9011 78.7195 29.9011 79.7993 29.9011C80.3393 29.9011 80.4472 30.0091 80.4472 30.5488C80.4472 33.7872 80.4472 37.0256 80.4472 40.264C80.4472 40.8037 80.3393 40.9116 79.7993 40.9116C78.7195 40.9116 77.6397 40.9116 76.5599 40.9116C75.912 40.9116 75.804 41.1275 75.804 41.6673C75.804 44.6897 75.804 47.7122 75.804 50.7347C75.804 51.3824 75.696 51.5983 74.9401 51.5983C71.9166 51.5983 69.0011 51.5983 65.9776 51.5983C65.3297 51.5983 65.2217 51.4903 65.2217 50.8427C65.3297 46.9566 65.3297 42.9626 65.3297 38.8607Z"
            fill="#F2EDE1" />
        <path
            d="M228.383 26.5548C228.383 22.5608 228.383 18.4588 228.383 14.4648C228.383 13.7092 228.599 13.4933 229.355 13.6013C232.271 13.6013 235.186 13.6013 238.102 13.6013C238.75 13.6013 238.966 13.7092 238.966 14.4648C238.966 17.4873 238.966 20.4019 238.966 23.4243C238.966 24.2879 239.182 24.5038 240.045 24.3959C241.125 24.2879 242.097 24.3959 243.177 24.3959C243.609 24.3959 243.717 24.5038 243.717 24.9356C243.717 28.174 243.717 31.5203 243.717 34.7587C243.717 35.2984 243.501 35.4064 242.961 35.4064C241.881 35.4064 240.801 35.4064 239.613 35.4064C238.966 35.4064 238.858 35.6222 238.966 36.162C239.074 36.5938 239.074 37.0255 239.074 37.3494C239.398 39.8321 240.369 40.9116 242.961 41.1275C243.717 41.2354 243.933 41.3434 243.933 42.207C243.825 45.3374 243.933 48.3599 243.933 51.4903C243.933 51.8142 244.041 52.2459 243.393 52.2459C239.182 52.2459 235.51 50.9506 232.487 48.036C229.895 45.4453 228.707 42.099 228.599 38.5368C228.383 34.4348 228.383 30.5488 228.383 26.5548ZM228.491 37.5653C228.599 29.6852 228.599 21.8052 228.599 13.9251C228.599 13.9251 228.599 13.9251 228.491 13.9251C228.491 21.9131 228.491 29.6852 228.491 37.5653Z"
            fill="#F2EDE1" />
        <path
            d="M289.825 32.708C289.825 38.753 289.825 44.798 289.825 50.8429C289.825 51.5986 289.717 51.8145 288.962 51.8145C286.046 51.8145 283.022 51.8145 280.107 51.8145C279.567 51.8145 279.351 51.7065 279.351 51.0588C279.351 38.8609 279.351 26.5551 279.351 14.3572C279.351 13.7095 279.675 13.6016 280.215 13.6016C283.13 13.6016 286.154 13.6016 289.07 13.6016C289.717 13.6016 289.933 13.7095 289.933 14.4651C289.825 20.5101 289.825 26.663 289.825 32.708Z"
            fill="#F2EDE1" />
        <path
            d="M147.18 13.7092C147.288 13.3854 147.504 13.4933 147.612 13.4933C150.744 13.4933 153.983 13.4933 157.115 13.4933C157.331 13.4933 157.547 13.3854 157.547 13.7092C157.115 13.9251 157.331 14.3569 157.331 14.6808C157.331 26.9866 157.331 39.2924 157.331 51.5983C154.091 51.5983 150.852 51.5983 147.504 51.5983C147.504 51.0586 147.504 50.6268 147.504 50.0871C147.504 38.3209 147.504 26.4469 147.504 14.6808C147.504 14.4649 147.72 13.9251 147.18 13.7092Z"
            fill="#F2EDE1" />
        <path
            d="M205.923 46.9566C205.923 45.3374 205.923 43.8261 205.923 42.2069C205.923 41.5593 206.031 41.2354 206.679 41.3434C206.895 41.3434 207.219 41.3434 207.435 41.2354C209.918 40.9116 210.89 39.8321 211.106 37.3494C211.214 35.9461 211.322 34.6507 211.43 33.2474C211.862 28.7137 214.778 25.5833 219.205 24.5038C221.257 24.072 223.416 24.18 225.468 24.18C225.9 24.18 226.008 24.3959 226.008 24.7197C226.008 27.9581 226.008 31.3044 226.008 34.5428C226.008 34.9746 225.9 35.0825 225.468 35.1905C222.984 35.4063 222.336 36.162 222.012 38.6447C221.796 40.8036 221.472 42.9626 220.501 45.0135C218.557 49.3314 215.21 51.5983 210.566 52.138C209.27 52.2459 207.975 52.2459 206.571 52.3539C205.923 52.3539 205.707 52.138 205.707 51.4903C205.923 50.087 205.923 48.4678 205.923 46.9566Z"
            fill="#F2EDE1" />
        <path
            d="M176.12 51.706C172.34 51.706 168.669 51.706 164.997 51.706C164.458 51.706 164.35 51.3822 164.242 51.0584C162.19 45.4452 160.138 39.724 158.195 34.1108C158.087 33.679 157.979 33.3552 158.195 32.9234C159.598 30.1168 161.002 27.2023 162.406 24.3957C162.514 24.0718 162.73 23.856 163.162 23.856C166.617 23.856 170.073 23.856 173.528 23.856C173.636 24.2877 173.42 24.5036 173.312 24.7195C171.908 27.5261 170.505 30.4407 168.993 33.2473C168.669 33.787 168.669 34.2188 168.885 34.7585C171.26 40.1558 173.528 45.4452 175.796 50.8425C175.904 51.1663 176.012 51.4901 176.12 51.706Z"
            fill="#F2EDE1" />
        <path
            d="M335.502 52.4619C331.615 52.4619 328.915 49.7633 328.915 45.8772C328.915 42.0991 331.831 39.1846 335.502 39.1846C339.173 39.1846 342.197 42.2071 342.197 45.9852C342.197 49.5474 339.173 52.4619 335.502 52.4619Z"
            fill="#F2EDE1" />
        <path
            d="M147.181 13.7095C147.721 13.9254 147.505 14.3571 147.505 14.7889C147.505 26.555 147.505 38.4291 147.505 50.1952C147.505 50.735 147.505 51.1667 147.505 51.7065C147.397 51.7065 147.397 51.7065 147.289 51.7065C147.289 51.5985 147.181 51.4906 147.181 51.3826C147.181 51.1667 147.181 50.9509 147.181 50.735C147.181 38.645 147.181 26.555 147.181 14.4651C147.073 14.1413 147.073 13.9254 147.181 13.7095Z"
            fill="white" />
        <path
            d="M157.223 51.7064C157.223 39.4006 157.223 27.0947 157.223 14.7889C157.223 14.4651 157.007 14.0333 157.439 13.8174C157.439 14.8968 157.547 15.8684 157.439 16.9478C157.439 22.4531 157.439 28.0663 157.439 33.5715V33.6795C157.547 39.6165 157.547 45.5535 157.439 51.3826C157.439 51.4906 157.439 51.5985 157.331 51.7064C157.439 51.7064 157.331 51.7064 157.223 51.7064Z"
            fill="white" />
        <path
            d="M147.18 51.3823C147.18 51.4903 147.288 51.5982 147.288 51.7062C146.964 51.7062 147.072 51.4903 147.18 51.3823Z"
            fill="#F2EDE1" />
        <path
            d="M157.438 51.7062C157.438 51.5982 157.438 51.4903 157.546 51.3823C157.546 51.4903 157.654 51.5982 157.438 51.7062Z"
            fill="#F2EDE1" />
        <path
            d="M19.2209 15.7603C19.3289 15.6523 19.3289 15.6523 19.4368 15.6523C19.4368 15.7603 19.5448 15.6523 19.5448 15.6523C19.9768 15.5444 20.4087 15.4364 20.7326 15.4364C22.0284 15.4364 23.2162 15.6523 24.2961 16.1921C24.944 16.5159 25.5918 16.6238 26.2397 16.6238C27.1036 16.7318 27.9675 16.6239 28.8313 16.5159C28.9393 16.5159 28.9393 16.5159 28.9393 16.408C28.9393 16.1921 28.9393 16.0841 28.9393 15.8682C29.0473 15.2206 29.3712 14.6808 29.8032 14.1411C30.4511 13.3855 31.099 12.8457 32.1788 12.7378C32.7187 12.8457 33.1506 13.0616 33.5826 13.2775C34.0145 13.4934 34.4464 13.8173 34.8784 14.1411C34.9863 14.1411 34.9863 14.249 35.0943 14.249V14.1411C35.3103 13.2775 35.6342 12.9537 36.4981 12.9537C36.822 12.9537 37.038 12.9537 37.362 12.9537C37.6859 12.9537 38.0099 13.0616 38.3338 12.9537H38.4418V13.0616C38.2258 13.3855 38.0099 13.7093 37.9019 14.0331C37.7939 14.4649 37.6859 14.7888 37.6859 15.2206C37.6859 15.8682 38.1178 16.408 38.7657 16.6238C39.1977 16.7318 39.5216 16.7318 39.9535 16.7318C40.0615 16.7318 40.0615 16.7318 40.1695 16.8397C40.2775 17.2715 40.2775 17.7033 40.2775 18.0271C40.1695 18.7828 39.9535 19.5384 39.8456 20.294C39.6296 21.4814 39.5216 22.7768 39.7376 23.9642C40.0615 25.3675 40.8174 26.5549 41.8972 27.6343C42.2212 27.9582 42.4371 28.4979 42.6531 28.9297C42.8691 29.7933 42.8691 30.6568 42.7611 31.6283C42.6531 32.7078 42.4371 33.7873 42.0052 34.8667C41.7893 35.2985 41.5733 35.6224 41.2493 35.9462C41.0334 36.1621 40.8174 36.27 40.3855 36.27C40.2775 36.27 40.2775 36.27 40.2775 36.378C40.2775 36.8098 40.3855 37.1336 40.3855 37.5654C40.4935 38.4289 40.3855 39.1846 40.2775 40.0481C39.9535 41.2355 39.3057 42.0991 38.2258 42.7468C37.6859 43.0706 37.254 43.2865 36.822 43.7183C36.0662 44.258 35.6342 44.9057 35.3103 45.6613C34.9863 46.7408 34.5544 47.9282 33.9065 48.8997C33.4746 49.7633 32.8267 50.5189 31.9628 50.9507C30.991 51.5984 29.9112 51.7063 28.7233 51.5984C28.3994 51.5984 28.0755 51.4904 27.7515 51.4904C27.6435 51.4904 27.5355 51.4904 27.5355 51.5984C27.5355 52.246 27.4276 52.8937 27.1036 53.4334C26.6717 54.1891 26.0238 54.5129 25.2679 54.8367C24.404 55.1606 23.4322 55.1606 22.4604 55.1606C21.2725 55.1606 19.9767 54.9447 18.7889 54.8367C18.7889 54.8367 18.7889 54.8367 18.681 54.8367C18.573 54.8367 18.465 54.8367 18.465 54.8367C18.357 54.8367 18.465 54.9447 18.465 55.0526C18.465 55.3765 18.357 55.5924 18.141 55.9162C17.4931 56.9957 16.6293 57.7513 15.4415 58.1831C14.1457 58.6149 13.2818 57.9672 12.8499 56.8877V56.7798C12.9579 56.5639 12.9579 56.348 13.0659 56.1321C13.1738 56.1321 13.1738 56.0242 13.1738 56.0242C13.8217 55.0526 14.6856 54.297 15.7654 53.8652C17.0612 53.2176 18.357 53.1096 19.7608 53.1096C19.8688 53.1096 19.8688 53.1096 19.8688 53.0017C19.7608 52.4619 19.7608 51.9222 19.9768 51.4904C20.3007 50.7348 20.9486 50.1951 21.7045 49.7633C23.0003 49.0077 24.2961 48.8997 25.6998 49.0077C26.4557 49.1156 27.1036 49.2236 27.7515 49.4394C27.8595 49.4394 27.8595 49.4394 27.8595 49.3315C27.8595 49.1156 27.8595 49.0077 27.8595 48.7918C27.9675 48.0361 28.3994 47.4964 28.9393 47.0646C29.2633 46.7408 29.5872 46.5249 30.0191 46.417C29.6952 46.0931 29.3712 45.7693 29.2633 45.3375C29.0473 44.5819 29.0473 43.8263 29.2633 43.0706C29.3712 42.5309 29.5872 42.0991 29.9112 41.6673C30.2351 41.3435 30.4511 41.1276 30.775 40.8038C31.7469 39.9402 32.8267 39.1846 33.9065 38.5369C34.5544 38.1051 35.0943 37.7813 35.6342 37.2415C35.9582 37.0257 36.1741 36.7018 36.2821 36.378C36.2821 36.27 36.3901 36.1621 36.1742 36.1621C36.0662 36.0541 35.9582 36.0541 35.7422 35.9462C34.9863 35.2985 34.6624 34.5429 34.6624 33.5714C34.5544 32.4919 34.8784 31.5204 35.2023 30.5489C35.8502 28.9297 36.2821 27.2026 36.2821 25.3675C36.2821 25.4754 36.2821 25.5834 36.2821 25.6913C36.1741 25.6913 36.2821 25.7993 36.1742 25.7993C35.8502 27.2026 35.0943 28.282 33.9065 29.1456C33.5826 29.4694 33.1506 29.5774 32.7187 29.6853C32.0708 29.7933 31.4229 30.0092 30.775 30.1171C29.5872 30.4409 28.6154 31.1966 27.9675 32.276C27.2116 33.4634 26.6717 34.6508 26.1318 35.9462C25.5919 37.1336 25.1599 38.321 24.728 39.4005C24.512 40.0481 24.1881 40.5879 23.7561 41.1276L23.6482 41.2355C22.8923 42.2071 22.0284 42.315 20.9486 41.8832C20.7326 41.7753 20.7326 41.7753 20.6246 41.9912C20.4087 43.0706 20.1927 44.1501 19.8688 45.2296C19.6528 45.7693 19.4368 46.309 19.1129 46.8487C18.465 47.8203 17.4931 48.36 16.4133 48.6838C15.3335 49.0077 14.2537 49.0077 13.0659 49.0077C12.7419 49.0077 12.418 49.0077 12.094 49.0077C11.986 49.0077 11.878 49.0077 11.878 49.2236C11.7701 50.0871 11.5541 50.9507 11.3381 51.7063C11.0142 52.7858 10.4743 53.8652 9.7184 54.7288C9.0705 55.4844 8.20664 55.9162 7.12681 56.1321C6.69488 56.24 6.26295 56.1321 5.83102 56.0242C5.72304 56.0242 5.72304 55.9162 5.61506 55.9162C5.39909 55.5924 5.39909 55.2685 5.50707 54.9447C5.61506 54.5129 5.83102 54.1891 6.04699 53.8652C6.26295 53.6493 6.37093 53.4334 6.5869 53.2176C6.91085 52.7858 7.01883 52.354 6.80287 51.9222C6.69488 51.5984 6.37093 51.2745 6.15497 50.9507C5.61506 50.303 5.07514 49.7633 4.64321 49.0077C4.64321 48.252 4.31926 47.3885 4.31926 46.5249C4.31926 46.2011 4.42725 45.8772 4.53523 45.5534C4.85918 44.6898 5.07514 43.7183 5.39909 42.8547C5.50707 42.5309 5.61506 42.2071 5.72304 41.8832C5.72304 41.7753 5.72304 41.6673 5.61506 41.6673C4.64321 40.8038 3.99532 39.7243 3.77935 38.4289C3.56338 37.4574 3.67137 36.5939 3.99532 35.6224C4.31926 34.5429 5.07514 33.7873 6.04699 33.2475C6.04699 33.3555 6.04699 33.3555 6.15497 33.2475C6.37093 33.1396 6.47892 33.0316 6.69488 33.0316C7.34278 32.8158 7.99067 32.5999 8.63857 32.7078C8.74655 32.7078 8.85454 32.7078 9.0705 32.8158C9.0705 32.7078 9.0705 32.7078 8.96252 32.5999C8.42261 31.4125 8.4226 30.1171 9.0705 28.9297C9.50243 28.282 9.93436 27.7423 10.5823 27.3105C11.7701 26.4469 13.1738 25.9072 14.7936 25.7993C14.9016 25.7993 15.0095 25.7993 14.9016 25.5834C14.9016 25.4754 14.9016 25.2595 14.9016 25.1516C14.9016 24.5039 15.0095 24.0721 15.4415 23.6403C15.7654 23.3165 16.1974 22.9927 16.7373 22.8847C16.8453 22.8847 16.8453 22.7768 16.8453 22.6688C16.6293 22.1291 16.5213 21.4814 16.5213 20.9417C16.5213 20.0781 16.8453 19.3225 17.1692 18.5669C17.7091 17.5954 18.357 16.8397 19.2209 16.0841C19.1129 15.9762 19.2209 15.8682 19.2209 15.7603ZM25.5919 25.7993C25.6998 25.7993 25.6998 25.6913 25.6998 25.6913C26.2397 24.9357 26.9956 24.6119 27.8595 24.396C28.2914 24.288 28.6154 24.288 29.0473 24.1801C30.0191 23.9642 30.775 23.4245 31.099 22.345C30.991 22.345 30.991 22.345 30.883 22.345C30.5591 22.345 30.2351 22.345 29.8032 22.345H29.9112C30.667 22.237 31.5309 22.345 32.2868 22.345C32.7187 22.345 33.2586 22.4529 33.6905 22.4529C34.0145 22.4529 34.3384 22.4529 34.5544 22.237C34.8784 22.1291 34.9863 21.9132 34.9863 21.5894C34.9863 21.3735 34.9863 21.1576 34.8784 21.0496C34.7704 20.8337 34.6624 20.5099 34.5544 20.294C34.2305 19.1066 34.4464 18.0271 35.4183 17.1636C35.7422 16.8397 36.1741 16.6238 36.4981 16.408C36.4981 16.408 36.6061 16.408 36.6061 16.3C35.6342 16.408 34.6624 16.3 33.7985 15.7603C33.6905 15.7603 33.6905 15.7603 33.6905 15.8682C33.2586 16.8397 32.5027 17.4874 31.5309 18.0271C30.3431 18.6748 29.0473 18.9987 27.7515 19.2146C26.6717 19.3225 25.4839 19.4304 24.404 19.3225C24.2961 19.3225 24.1881 19.3225 24.1881 19.4304C24.1881 19.5384 24.0801 19.7543 23.9721 19.8622C23.4322 20.8337 22.6763 21.6973 21.8125 22.5609C20.3007 23.9642 18.573 25.1516 16.7373 26.1231C16.1974 26.4469 15.5495 26.6628 15.0095 27.0946C14.2537 27.5264 13.7138 28.1741 13.4978 29.0376C13.3898 29.4694 13.2818 29.9012 13.2818 30.333C13.2818 30.8727 13.2818 31.4125 13.1738 31.9522C13.0659 32.7078 12.7419 33.3555 12.094 33.7873C11.6621 34.1111 11.3381 34.4349 11.0142 34.8667C10.6902 35.4065 10.4743 35.9462 10.2583 36.4859C9.93436 37.4574 9.7184 38.321 9.50243 39.2925C9.28647 40.1561 9.0705 40.9117 8.63857 41.6673C8.20664 42.315 7.99067 42.9627 7.77471 43.7183C7.34278 45.4454 7.2348 47.1726 7.2348 48.8997C7.2348 49.1156 7.2348 49.3315 7.2348 49.5474C7.66673 48.8997 7.99067 48.36 8.42261 47.7123C8.42261 47.7123 8.53059 47.7123 8.42261 47.6044C8.53059 47.6044 8.53059 47.6044 8.53059 47.4964C8.63857 47.3885 8.85454 47.1726 8.96252 47.0646C9.7184 46.5249 10.4743 46.2011 11.4461 46.417C11.5541 46.417 11.6621 46.417 11.7701 46.5249C11.7701 46.417 11.6621 46.417 11.6621 46.309C11.4461 45.8772 11.2302 45.4454 11.2302 44.9057C11.1222 44.0421 11.4461 43.3945 11.986 42.8547C12.418 42.315 13.0659 41.8832 13.7138 41.5594C15.0095 40.9117 16.3053 40.372 17.7091 40.0481C17.9251 40.0481 18.0331 39.9402 18.249 39.9402C18.141 39.8322 18.0331 39.6164 17.9251 39.5084C17.8171 39.4005 17.7091 39.1846 17.6011 39.0766C16.6293 37.5654 16.5213 35.9462 17.3852 34.327C17.8171 33.4634 18.465 32.8158 19.1129 32.276C20.7326 30.9807 22.6763 30.2251 24.728 29.7933C25.1599 29.6853 25.4839 29.6853 25.9158 29.5774C25.8078 29.3615 25.5919 29.2535 25.4839 29.0376C25.0519 28.39 24.836 27.7423 24.944 26.8787C24.944 26.7708 25.0519 26.6628 24.944 26.5549C25.2679 26.339 25.3759 26.1231 25.5919 25.7993C25.5919 25.9072 25.5919 25.9072 25.5919 25.7993Z"
            fill="#B8CA34" />
        <path
            d="M36.6059 25.5831C36.7139 25.4752 36.6059 25.3672 36.6059 25.2593C36.6059 27.0944 36.174 28.7136 35.5261 30.4407C35.2022 31.4122 34.8782 32.3837 34.9862 33.4632C34.9862 34.4347 35.3101 35.1903 36.066 35.838C36.174 35.9459 36.282 36.0539 36.4979 36.0539C36.6059 36.1618 36.6059 36.1618 36.6059 36.2698C36.39 36.5936 36.174 36.9175 35.958 37.1333C35.4181 37.6731 34.7702 37.9969 34.2303 38.4287C33.1505 39.1843 32.0707 39.832 31.0988 40.6956C30.7749 41.0194 30.4509 41.2353 30.2349 41.5591C29.911 41.9909 29.695 42.4227 29.587 42.9624C29.3711 43.7181 29.3711 44.4737 29.587 45.2293C29.695 45.6611 30.019 45.9849 30.3429 46.3088C29.911 46.4167 29.587 46.6326 29.2631 46.9564C28.7232 47.3882 28.2913 48.0359 28.1833 48.6836C28.1833 48.8995 28.1833 49.0074 28.1833 49.2233C28.1833 49.3312 28.1833 49.3312 28.0753 49.3312C27.4274 49.1154 26.6715 49.0074 26.0236 48.8995C24.6198 48.7915 23.2161 48.8995 22.0283 49.6551C21.2724 50.0869 20.7325 50.6266 20.3005 51.3822C20.0846 51.9219 20.0846 52.3537 20.1926 52.8935C20.1926 53.0014 20.1926 53.0014 20.0846 53.0014C18.6808 53.0014 17.385 53.1094 16.0892 53.757C15.0094 54.2968 14.1455 54.9444 13.4976 55.916C13.4976 55.916 13.4976 56.0239 13.3896 56.0239C13.8216 54.8365 14.3615 53.757 15.2254 52.8935C15.5493 52.5696 15.8733 52.2458 16.3052 52.0299C16.9531 51.7061 17.601 51.5981 18.2489 51.9219C18.3569 51.9219 18.3569 51.9219 18.4648 51.814C18.5728 51.3822 18.6808 50.9504 18.7888 50.6266C19.1127 49.9789 19.5447 49.4392 20.3005 49.2233C20.6245 49.1154 20.9484 49.1154 21.2724 49.2233C21.8123 49.2233 22.2442 49.3312 22.7841 49.2233C23.648 49.1154 24.0799 48.5756 24.2959 47.7121C24.4039 47.1723 24.5119 46.6326 24.6198 46.2008C24.7278 45.5531 25.0518 44.9055 25.5917 44.4737C25.8077 44.3657 25.9156 44.2578 26.1316 44.1498C27.1034 43.6101 27.9673 42.8545 28.6152 41.9909C29.3711 41.0194 29.803 39.832 30.019 38.6446C30.127 37.9969 30.3429 37.3492 30.4509 36.7016C30.5589 36.2698 30.7749 35.9459 31.0988 35.6221C32.2866 34.4347 33.3664 33.1393 34.3383 31.736C35.3101 30.4407 36.066 28.9294 36.39 27.4182C36.39 26.7705 36.4979 26.2308 36.6059 25.5831Z"
            fill="#F3EDE1" />
        <path
            d="M43.517 38.2128C44.1649 39.2922 44.7048 40.4796 44.9207 41.775C45.1367 42.6386 45.1367 43.3942 44.8128 44.2578C44.4888 45.0134 43.9489 45.6611 43.301 46.0928C42.4371 46.6326 41.3573 46.8485 40.3855 46.9564C40.2775 46.9564 40.0615 46.9564 40.0615 46.8485C40.0615 46.7405 40.1695 46.6326 40.2775 46.6326C42.0052 45.1213 43.193 43.2862 43.409 40.9114C43.517 39.9399 43.625 39.0763 43.517 38.2128C44.3808 37.4572 44.8128 36.5936 45.1367 35.6221C45.4607 34.6506 45.4607 33.5711 45.3527 32.5996C45.2447 31.844 45.1367 31.0883 44.9207 30.3327C44.8128 30.1168 44.7048 29.793 44.4888 29.685V29.5771C44.8128 28.4976 44.5968 27.5261 44.0569 26.6626C43.7329 26.1228 43.301 25.5831 43.085 24.9354C42.7611 24.1798 42.5451 23.4242 42.4371 22.6685C42.3292 21.697 42.3292 20.8335 42.3292 19.862C42.3292 19.4302 42.4371 18.8904 42.5451 18.4587C42.5451 18.3507 42.5451 18.3507 42.6531 18.3507C43.625 18.7825 44.4888 17.811 44.3808 16.9474C44.3808 16.8395 44.3808 16.6236 44.2728 16.5156C44.3808 16.6236 44.4888 16.7315 44.5968 16.8395C45.5686 17.9189 46.3245 19.1063 46.7564 20.5096C47.0804 21.697 46.9724 22.8844 46.5405 24.0718C46.4325 24.2877 46.3245 24.5036 46.1086 24.7195C45.8926 24.9354 45.6766 25.2593 45.3527 25.4751C45.2447 25.5831 45.2447 25.5831 45.3527 25.691C46.3245 26.9864 47.1884 28.3897 47.6203 29.9009C47.9443 30.7645 48.0522 31.5201 48.0522 32.3837C48.0522 33.4632 47.7283 34.4347 46.9724 35.1903C46.3245 35.9459 45.6766 36.7015 44.9207 37.3492C44.7048 37.5651 44.4888 37.781 44.1649 37.8889C44.1649 37.9969 43.9489 38.1048 43.517 38.2128Z"
            fill="#B8CA34" />
        <path
            d="M19.2209 15.7603C19.2209 15.8682 19.1129 15.9761 19.0049 15.9761C18.2491 16.7318 17.4932 17.4874 16.9533 18.4589C16.5213 19.2145 16.3054 19.9701 16.3054 20.8337C16.3054 21.4814 16.4134 22.0211 16.6293 22.5609C16.6293 22.6688 16.6293 22.6688 16.5213 22.7767C16.0894 22.9926 15.6575 23.2085 15.2255 23.5324C14.7936 23.9642 14.5777 24.5039 14.6856 25.0436C14.6856 25.1516 14.6856 25.3675 14.6856 25.4754C14.6856 25.5833 14.6856 25.6913 14.5777 25.6913C13.0659 25.7992 11.6621 26.231 10.3663 27.2025C9.71843 27.6343 9.2865 28.174 8.85457 28.8217C8.20667 30.0091 8.09869 31.1965 8.74659 32.4919C8.74659 32.5998 8.85457 32.5998 8.85457 32.7078C8.74659 32.7078 8.6386 32.7078 8.42264 32.5998C7.77474 32.4919 7.12685 32.7078 6.47895 32.9237C6.26299 33.0316 6.155 33.0316 5.93904 33.1396C5.83105 33.1396 5.83105 33.1396 5.83105 33.1396C5.93904 33.1396 5.93904 33.0316 5.93904 33.0316C6.69492 31.9522 7.01886 30.7648 7.01886 29.4694C7.01886 28.9297 6.91088 28.4979 6.8029 27.9582C6.58693 27.0946 6.8029 26.231 7.23483 25.4754C7.77474 24.3959 8.6386 23.7483 9.71843 23.3165C10.7983 22.8847 11.8781 22.6688 12.9579 22.5609C13.4978 22.5609 14.1457 22.4529 14.6856 22.5609C14.7936 22.5609 14.7936 22.5609 14.7936 22.4529C14.6856 21.8052 14.7936 21.1576 14.9016 20.5099C15.3335 18.1351 16.6293 16.6238 18.897 15.8682C19.0049 15.8682 19.1129 15.7603 19.2209 15.7603Z"
            fill="#F3EDE1" />
        <path
            d="M23.4321 57.1033C23.8641 57.2112 24.296 57.2112 24.7279 57.2112C25.8077 57.3191 26.9956 57.2112 28.0754 56.8874C29.2632 56.5635 30.1271 55.9158 30.667 54.8364C30.8829 54.4046 30.9909 53.9728 31.0989 53.4331C31.0989 53.3251 31.0989 53.3251 31.2069 53.3251C32.7186 53.541 34.0144 53.1092 35.3102 52.3536C36.714 51.598 37.7938 50.6265 38.6577 49.3311C38.7657 49.2232 38.8736 49.0073 38.8736 48.7914C38.8736 48.6835 38.9816 48.6835 38.9816 48.7914C39.1976 49.1152 39.4136 49.4391 39.4136 49.8709C39.6295 51.4901 39.1976 53.0013 37.9018 54.1887C37.1459 54.9443 36.1741 55.1602 35.2022 55.2682C34.3384 55.2682 33.4745 55.1602 32.6107 54.9443C32.3947 54.9443 32.1787 54.8364 31.9628 54.8364C31.7468 54.8364 31.4228 54.8364 31.2069 55.0523C30.667 55.4841 30.451 56.1317 30.559 56.8874C30.7749 59.0463 29.2632 60.5575 27.1035 60.5575C26.4556 60.5575 25.9157 60.4496 25.2678 60.2337C24.512 59.9098 24.08 59.3701 23.8641 58.6145C23.7561 58.3986 23.7561 58.0748 23.6481 57.8589C23.7561 57.535 23.5401 57.3191 23.4321 57.1033Z"
            fill="#B8CA34" />
        <path
            d="M32.2869 12.7379C31.315 12.7379 30.5592 13.3855 29.9113 14.1412C29.4793 14.6809 29.1554 15.2206 29.0474 15.8683C29.0474 16.0842 28.9394 16.1921 29.0474 16.408C29.0474 16.516 29.0474 16.516 28.9394 16.516C28.0756 16.6239 27.2117 16.7319 26.3478 16.6239C25.6999 16.516 25.052 16.408 24.4041 16.1921C23.2163 15.6524 22.0285 15.4365 20.8407 15.4365C20.4088 15.4365 19.9769 15.5445 19.6529 15.6524C19.6529 15.6524 19.5449 15.7604 19.5449 15.6524C19.9769 15.4365 20.4088 15.4365 20.9487 15.4365C21.7046 15.4365 22.5684 15.4365 23.3243 15.3286C23.9722 15.3286 24.6201 15.2206 25.16 15.0047C25.376 14.8968 25.592 14.7888 25.8079 14.6809C25.9159 14.5729 25.9159 14.6809 26.0239 14.6809C26.4558 14.8968 26.8877 15.1127 27.3197 15.1127C27.9676 15.1127 28.3995 14.7888 28.3995 14.1412C28.3995 13.7094 28.6155 13.4935 28.9394 13.1696C29.3713 12.8458 30.0192 12.6299 30.5592 12.522C31.0991 12.522 31.747 12.6299 32.2869 12.7379Z"
            fill="#F3EDE1" />
        <path
            d="M20.8407 60.2339C20.4087 60.6657 19.8688 60.9895 19.2209 61.3134C18.573 61.6372 17.8171 61.7451 17.1692 61.8531C15.4415 62.069 13.7138 61.8531 12.0941 61.0975C11.3382 60.7736 10.5823 60.2339 10.0424 59.4783C10.0424 59.3703 9.93441 59.3703 9.93441 59.4783C8.96256 59.91 7.99072 60.1259 7.01887 60.2339C6.04703 60.3418 5.07519 60.2339 4.10334 60.1259C3.45545 60.1259 2.69957 60.018 2.05167 60.018C1.72772 60.018 1.51176 60.018 1.18781 60.1259C1.07983 60.2339 0.863861 60.2339 0.755879 60.2339C0.539913 60.2339 0.431931 60.1259 0.539913 59.91C1.07983 58.6147 1.61974 57.3193 2.05167 55.916C2.26764 55.1604 2.37562 54.4048 2.69957 53.6492C2.80755 53.2174 3.02351 52.7856 3.23948 52.3538C3.23948 52.2459 3.23948 52.03 3.23948 51.922C3.34746 51.7062 3.23948 51.5982 3.02351 51.4903C2.15965 50.8426 1.51176 50.1949 1.07983 49.3313C0.647896 48.4678 0.323948 47.6042 0.431931 46.6327C0.431931 46.3088 0.431931 45.8771 0.431931 45.5532C0.539913 44.2579 0.971844 43.0705 1.72772 42.099C1.83571 41.8831 1.83571 41.8831 1.72772 41.7751C1.40377 41.4513 1.18781 41.1274 0.971844 40.6957C0.539913 39.94 0.323948 39.0765 0.215965 38.1049C0 37.4573 0 36.8096 0 36.1619C0.215965 34.003 1.18781 32.1679 3.1315 30.9805C3.23948 30.9805 3.23948 30.8726 3.23948 30.7646C3.02351 30.2249 3.02351 29.6852 2.91553 29.1454C2.91553 28.6057 2.80755 27.958 2.91553 27.4183C3.02351 25.3673 3.56343 23.4243 4.9672 21.8051C5.93905 20.6177 7.23484 19.8621 8.7466 19.4303C9.71844 19.2144 10.6903 19.1064 11.6621 19.1064C11.7701 19.1064 11.8781 19.1064 11.8781 18.8906C11.9861 15.5442 14.1457 13.1694 16.9533 12.3058C18.1411 11.982 19.3289 11.7661 20.5167 11.8741C21.8125 11.982 23.0003 12.3058 24.1881 12.7376C24.2961 12.7376 24.2961 12.8456 24.2961 12.6297C24.5121 11.2264 25.2679 10.1469 26.4558 9.49925C27.3196 8.95952 28.1835 8.74363 29.2633 8.63568C30.4511 8.52774 31.6389 8.52774 32.8267 8.85157C33.3666 9.06747 33.9066 9.28336 34.4465 9.6072C34.6624 9.82309 34.8784 9.93104 34.9864 10.2549C35.0944 10.3628 35.0944 10.3628 35.2024 10.2549C35.7423 9.93104 36.2822 9.6072 36.8221 9.3913C38.1179 8.95952 39.1977 9.28336 40.2775 10.1469C40.4935 10.2549 40.4935 10.2549 40.4935 10.039C40.6015 9.6072 40.7095 9.28336 40.6015 8.85157C40.4935 7.66417 39.9536 6.69265 39.1977 5.72114C38.2259 4.53373 36.9301 3.77811 35.4183 3.45427C34.5545 3.23838 33.5826 3.23838 32.7188 3.34633C31.6389 3.45427 30.5591 3.77811 29.4793 4.10195C29.0473 4.2099 28.7234 4.31784 28.2915 4.31784C27.7515 4.31784 27.4276 4.10195 27.1037 3.67017C26.8877 3.34633 26.7797 2.91454 26.6717 2.48276C26.6717 2.05097 26.7797 1.72714 27.2116 1.4033C27.5356 1.29535 28.0755 1.07946 28.5074 0.971514C29.5873 0.647676 30.6671 0.323838 31.7469 0.215892C32.7188 0 33.6906 0 34.7704 0C35.9582 0.107946 37.0381 0.323838 38.1179 0.755622C39.7376 1.4033 41.0334 2.48276 42.1132 3.994C42.8691 5.07346 43.517 6.26087 43.841 7.44828C44.0569 7.98801 44.0569 8.63568 44.0569 9.28336C44.0569 9.93104 43.9489 10.4708 43.841 11.1184C43.841 11.2264 43.841 11.3343 44.0569 11.4423C45.4607 11.982 46.5405 12.9535 47.5124 14.033C49.0241 15.7601 49.996 17.7031 50.5359 19.8621C50.7519 20.5097 50.8598 21.1574 50.8598 21.913C50.9678 22.5607 50.9678 23.2084 50.8598 23.8561C50.7519 24.9355 50.4279 25.907 49.78 26.6627C49.672 26.7706 49.78 26.7706 49.78 26.8786C50.3199 27.5262 50.7519 28.1739 51.0758 28.9295C51.5077 29.9011 51.7237 30.8726 51.7237 31.8441C51.7237 33.1394 51.3997 34.3268 50.7519 35.4063C50.3199 36.2699 49.672 37.0255 48.9161 37.6732C48.8082 37.7811 48.7002 37.7811 48.7002 37.8891C48.5922 37.8891 48.5922 37.997 48.7002 38.1049C49.1321 38.8606 49.3481 39.6162 49.564 40.4798C49.672 41.2354 49.78 41.991 49.672 42.6387C49.564 44.1499 49.1321 45.4453 48.2683 46.7406C47.1884 48.3598 45.5687 49.3313 43.733 49.8711C43.517 49.979 43.517 49.979 43.517 50.1949C43.9489 51.922 43.733 53.5412 42.7611 55.0525C41.6813 56.7796 40.1696 57.8591 38.3338 58.6147C37.254 59.0465 36.1742 59.2624 35.0944 59.2624C34.9864 59.2624 34.9864 59.3703 34.8784 59.3703C34.4465 60.5577 33.7986 61.6372 32.9347 62.3928C31.9629 63.2564 30.7751 63.9041 29.4793 64.1199C28.7234 64.2279 27.9675 64.3358 27.2116 64.2279C25.6999 64.1199 24.4041 63.5802 23.1083 62.6087C22.2444 61.961 21.5965 61.2054 21.0566 60.3418C20.8407 60.3418 20.8407 60.3418 20.8407 60.2339ZM36.6061 25.5832C36.6061 26.1229 36.4981 26.7706 36.2822 27.3103C35.8502 28.9295 35.0944 30.3328 34.2305 31.6282C33.2587 33.0315 32.1788 34.3268 30.991 35.5142C30.6671 35.8381 30.4511 36.1619 30.3431 36.5937C30.1272 37.2414 30.0192 37.8891 29.9112 38.5367C29.6952 39.7241 29.2633 40.9115 28.5074 41.8831C27.8595 42.7466 26.9957 43.5023 26.0238 44.042C25.8079 44.1499 25.6999 44.2579 25.4839 44.3658C24.944 44.7976 24.6201 45.4453 24.5121 46.093C24.4041 46.6327 24.2961 47.1724 24.1881 47.6042C23.9722 48.4678 23.4322 48.8996 22.6764 49.1154C22.1364 49.2234 21.7045 49.2234 21.1646 49.1154C20.8407 49.1154 20.5167 49.0075 20.1928 49.1154C19.4369 49.3313 19.0049 49.8711 18.681 50.5187C18.465 50.9505 18.465 51.2744 18.3571 51.7062C18.3571 51.8141 18.2491 51.8141 18.1411 51.8141C17.4932 51.5982 16.8453 51.5982 16.1974 51.922C15.7655 52.1379 15.4415 52.4618 15.1176 52.7856C14.2537 53.6492 13.7138 54.7286 13.2819 55.916C13.1739 56.1319 13.1739 56.3478 13.0659 56.5637V56.6717C13.4978 57.8591 14.4697 58.3988 15.6575 57.967C16.8453 57.5352 17.7092 56.7796 18.3571 55.7002C18.465 55.4843 18.573 55.1604 18.681 54.8366C18.681 54.7286 18.573 54.6207 18.681 54.6207C18.789 54.6207 18.789 54.6207 18.897 54.6207C18.897 54.6207 18.897 54.6207 19.005 54.6207C20.1928 54.7286 21.3806 54.9445 22.6764 54.9445C23.6482 54.9445 24.62 54.9445 25.4839 54.6207C26.2398 54.4048 26.8877 53.973 27.3196 53.2174C27.6436 52.6777 27.7515 52.03 27.7515 51.3823C27.7515 51.2744 27.7515 51.2744 27.9675 51.2744C28.2915 51.3823 28.6154 51.3823 28.9394 51.3823C30.1272 51.4903 31.207 51.3823 32.1788 50.7346C33.0427 50.1949 33.5826 49.4393 34.1225 48.6837C34.7704 47.6042 35.0944 46.5247 35.5263 45.4453C35.8503 44.5817 36.2822 43.934 37.0381 43.5023C37.47 43.1784 38.0099 42.8546 38.4418 42.5307C39.5217 41.8831 40.1696 41.0195 40.4935 39.8321C40.7095 38.9685 40.7095 38.2129 40.6015 37.3493C40.6015 36.9175 40.4935 36.5937 40.4935 36.1619C40.4935 36.054 40.4935 36.054 40.6015 36.054C40.9254 36.054 41.1414 35.946 41.4653 35.7301C41.7893 35.4063 42.0053 34.9745 42.2212 34.6507C42.6532 33.6792 42.8691 32.5997 42.9771 31.4123C43.0851 30.5487 43.0851 29.5772 42.8691 28.7136C42.7611 28.1739 42.5452 27.7421 42.1132 27.4183C41.0334 26.4468 40.2775 25.2594 39.9536 23.7481C39.6296 22.4528 39.7376 21.2654 40.0616 20.078C40.1696 19.3223 40.3855 18.5667 40.4935 17.8111C40.4935 17.3793 40.6015 16.9475 40.3855 16.6237C40.3855 16.5157 40.2775 16.5157 40.1696 16.5157C39.7376 16.5157 39.4137 16.5157 38.9817 16.4078C38.3338 16.1919 37.9019 15.6522 37.9019 15.0045C37.9019 14.5727 38.0099 14.1409 38.1179 13.8171C38.2259 13.4933 38.4418 13.1694 38.6578 12.8456C38.6578 12.8456 38.7658 12.7376 38.6578 12.7376H38.5498C38.2259 12.8456 37.9019 12.8456 37.578 12.7376C37.254 12.7376 37.0381 12.7376 36.7141 12.7376C35.8502 12.7376 35.5263 13.0615 35.3103 13.925V14.033C35.2024 14.033 35.2024 13.925 35.0944 13.925C34.6624 13.6012 34.2305 13.2774 33.7986 13.0615C33.3666 12.8456 32.9347 12.5217 32.3948 12.5217C31.8549 12.3058 31.207 12.3058 30.6671 12.4138C30.1272 12.5217 29.4793 12.6297 29.0473 13.0615C28.7234 13.2774 28.5074 13.6012 28.5074 14.033C28.3994 14.6807 27.9675 15.0045 27.4276 15.0045C26.8877 15.0045 26.4558 14.7886 26.1318 14.5727C26.0238 14.5727 26.0238 14.4648 25.9158 14.5727C25.6999 14.6807 25.4839 14.8966 25.2679 14.8966C24.62 15.1124 24.0801 15.2204 23.4322 15.2204C22.6764 15.3283 21.8125 15.2204 21.0566 15.3283C20.6247 15.3283 20.0848 15.3283 19.6528 15.5442C19.5449 15.5442 19.4369 15.5442 19.4369 15.6522C19.3289 15.6522 19.2209 15.6522 19.1129 15.7601C16.8453 16.5157 15.4415 18.027 15.1176 20.4018C15.0096 21.0495 15.0096 21.6972 15.0096 22.3448C15.0096 22.4528 15.0096 22.4528 14.9016 22.4528C14.3617 22.4528 13.7138 22.4528 13.1739 22.4528C12.0941 22.5607 11.0142 22.7766 10.0424 23.2084C8.96256 23.7481 8.0987 24.3958 7.55879 25.3673C7.12686 26.1229 6.91089 26.9865 7.12686 27.8501C7.23484 28.3898 7.34282 28.8216 7.34282 29.3613C7.34282 30.6567 6.91089 31.8441 6.263 32.9235L6.15501 33.0315C5.18317 33.5712 4.42729 34.3268 4.10334 35.4063C3.77939 36.3778 3.67141 37.2414 3.88738 38.2129C4.10334 39.5083 4.75124 40.5877 5.72308 41.4513C5.83106 41.5592 5.83106 41.5592 5.83106 41.6672C5.72308 41.991 5.6151 42.3148 5.50712 42.6387C5.18317 43.5023 4.9672 44.4738 4.64326 45.3373C4.42729 45.8771 4.31931 46.2009 4.31931 46.5247C4.31931 47.4963 4.64325 48.2519 5.07519 49.0075C5.50712 49.6552 6.04703 50.3029 6.58694 50.9505C6.80291 51.2744 7.01887 51.4903 7.23484 51.922C7.4508 52.4618 7.4508 52.8936 7.01887 53.2174C6.80291 53.4333 6.58694 53.6492 6.47896 53.8651C6.26299 54.1889 6.04703 54.5128 5.93905 54.9445C5.83106 55.2684 5.83106 55.5922 6.04703 55.916C6.04703 56.024 6.15501 56.024 6.263 56.024C6.69493 56.024 7.12686 56.1319 7.55879 56.1319C8.53063 56.024 9.39449 55.4843 10.1504 54.7286C10.9062 53.8651 11.4462 52.8936 11.7701 51.7062C11.9861 50.8426 12.202 50.087 12.31 49.2234C12.31 49.1154 12.418 49.0075 12.526 49.0075C12.8499 49.0075 13.1739 49.0075 13.4978 49.0075C14.5777 49.0075 15.7655 48.8996 16.8453 48.6837C17.9251 48.3598 18.897 47.8201 19.5449 46.8486C19.8688 46.3089 20.0848 45.8771 20.3007 45.2294C20.6247 44.1499 20.9486 43.0705 21.0566 41.991C21.0566 41.7751 21.0566 41.7751 21.3806 41.8831C22.4604 42.3148 23.3243 42.2069 24.0801 41.2354L24.1881 41.1274C24.62 40.5877 24.944 39.94 25.16 39.4003C25.6999 38.2129 26.1318 37.0255 26.5637 35.946C27.1037 34.6507 27.6436 33.4633 28.3994 32.2759C29.0473 31.1964 30.0192 30.5487 31.207 30.1169C31.8549 29.9011 32.5028 29.7931 33.1507 29.6852C33.5826 29.5772 34.0145 29.4693 34.3385 29.1454C35.4183 28.2819 36.2822 27.2024 36.6061 25.7991C36.4981 25.6912 36.4981 25.5832 36.6061 25.5832ZM43.517 38.2129C43.841 38.105 44.1649 37.997 44.3809 37.7811C44.5968 37.5652 44.9208 37.4573 45.1368 37.2414C45.8926 36.5937 46.5405 35.8381 47.1884 35.0825C47.9443 34.3268 48.1603 33.3553 48.2683 32.2759C48.2683 31.4123 48.1603 30.5487 47.8363 29.7931C47.2964 28.2819 46.5405 26.8786 45.5687 25.5832C45.4607 25.4753 45.4607 25.4753 45.5687 25.3673C45.7847 25.1514 46.1086 24.9355 46.3246 24.6117C46.4325 24.3958 46.6485 24.1799 46.7565 23.964C47.1884 22.7766 47.2964 21.5892 46.9725 20.4018C46.6485 18.9985 45.7847 17.8111 44.8128 16.7316C44.7048 16.6237 44.5968 16.5157 44.4889 16.4078C44.4889 16.5157 44.4889 16.7316 44.5968 16.8396C44.7048 17.7031 43.841 18.6747 42.8691 18.2429C42.7611 18.2429 42.7611 18.2429 42.7611 18.3508C42.6532 18.7826 42.6532 19.3223 42.5452 19.7541C42.4372 20.7256 42.5452 21.5892 42.6532 22.5607C42.7611 23.3163 42.8691 24.072 43.301 24.8276C43.625 25.3673 43.9489 25.907 44.2729 26.5547C44.8128 27.4183 45.0288 28.3898 44.7048 29.4693V29.5772C44.9208 29.6852 45.0288 30.009 45.1368 30.2249C45.3527 30.9805 45.5687 31.7361 45.5687 32.4918C45.6767 33.5712 45.5687 34.5427 45.3527 35.5142C44.9208 36.5937 44.4889 37.4573 43.517 38.2129C43.517 39.0765 43.517 39.94 43.409 40.6957C43.1931 43.0705 41.8973 44.9056 40.2775 46.4168C40.1696 46.5247 40.0616 46.5247 40.0616 46.6327C40.0616 46.7406 40.2775 46.7406 40.3855 46.7406C41.4653 46.6327 42.4372 46.4168 43.301 45.8771C44.0569 45.4453 44.5968 44.9056 44.8128 44.042C45.1368 43.2864 45.0288 42.4228 44.9208 41.5592C44.8128 40.4798 44.2729 39.2924 43.517 38.2129ZM23.4322 57.1035C23.6482 57.3193 23.7562 57.5352 23.8642 57.7511C23.9722 57.967 23.9722 58.2909 24.0801 58.5068C24.2961 59.2624 24.728 59.8021 25.4839 60.1259C26.0238 60.3418 26.6717 60.4498 27.3196 60.4498C29.4793 60.5577 30.883 58.9385 30.7751 56.7796C30.6671 56.1319 30.883 55.4843 31.423 54.9445C31.6389 54.7286 31.8549 54.7286 32.1788 54.7286C32.3948 54.7286 32.6108 54.8366 32.8267 54.8366C33.6906 55.0525 34.5545 55.1604 35.4183 55.1604C36.3902 55.1604 37.362 54.8366 38.1179 54.081C39.3057 52.8936 39.8456 51.4903 39.6296 49.7631C39.6296 49.3313 39.4137 49.0075 39.1977 48.6837C39.0897 48.5757 39.0897 48.5757 39.0897 48.6837C38.9817 48.8996 38.9817 49.0075 38.8738 49.2234C38.0099 50.5187 36.9301 51.4903 35.5263 52.2459C34.2305 53.0015 32.9347 53.3253 31.423 53.2174C31.315 53.2174 31.315 53.2174 31.315 53.3253C31.207 53.7571 31.099 54.2969 30.883 54.7286C30.3431 55.8081 29.4793 56.4558 28.2915 56.7796C27.2116 57.1035 26.1318 57.1035 24.944 57.1035C24.2961 57.2114 23.8642 57.2114 23.4322 57.1035Z"
            fill="#171747" />
        <path
            d="M36.7141 16.5159C36.7141 16.6238 36.6061 16.6238 36.6061 16.6238C36.1741 16.8397 35.8502 17.0556 35.5263 17.3794C34.5544 18.243 34.2305 19.2145 34.6624 20.5099C34.7704 20.7258 34.8784 21.0496 34.9863 21.2655C35.0943 21.4814 35.0943 21.5893 35.0943 21.8052C35.0943 22.1291 34.8784 22.345 34.6624 22.4529C34.3384 22.5609 34.1225 22.6688 33.7985 22.6688C33.3666 22.6688 32.8267 22.5609 32.3948 22.5609C31.6389 22.4529 30.775 22.4529 30.0191 22.5609H29.9112C29.8032 22.5609 29.6952 22.5609 29.5872 22.5609C29.1553 22.6688 28.7233 22.7767 28.2914 22.8847C26.8876 23.4244 26.1318 24.6118 25.6998 25.9072C25.6998 25.9072 25.6998 25.9072 25.6998 26.0151C25.6998 26.0151 25.6998 26.0151 25.6998 26.1231C25.5918 26.339 25.4839 26.5549 25.3759 26.7707C25.0519 27.3105 24.62 27.6343 23.9721 27.6343C23.0003 27.6343 22.0284 27.8502 21.1646 28.0661C20.3007 28.282 19.5448 28.6058 19.0049 29.2535C17.9251 30.4409 17.1692 31.7363 16.5213 33.1396C15.9814 34.219 15.6574 35.4064 15.7654 36.5938C15.7654 36.7018 15.6574 36.7018 15.6574 36.7018C14.7936 37.0256 14.1457 37.5654 13.7138 38.321C13.1738 39.2925 12.8499 40.264 12.8499 41.3435C12.8499 41.5594 12.7419 41.5594 12.6339 41.6673C12.31 41.7752 12.094 41.6673 11.878 41.5594C11.7701 41.4514 11.6621 41.4514 11.5541 41.3435C11.4461 41.6673 11.1222 41.9911 10.9062 42.207C10.6902 42.4229 10.3663 42.7468 10.1503 42.9627C9.61041 43.1785 9.39444 43.7183 9.39444 44.258C9.39444 45.1216 9.28646 45.8772 8.96251 46.5249C8.85453 46.8487 8.63857 47.2805 8.53058 47.6043C8.53058 47.6043 8.53058 47.6043 8.53058 47.7123C8.20663 48.36 7.7747 49.0076 7.34277 49.5474C7.34277 49.3315 7.34277 49.1156 7.34277 48.8997C7.34277 47.1726 7.55874 45.4454 7.88269 43.7183C8.09865 42.9627 8.31462 42.315 8.74655 41.6673C9.17848 40.9117 9.39444 40.1561 9.61041 39.2925C9.82637 38.321 10.0423 37.4574 10.3663 36.4859C10.5823 35.9462 10.7982 35.4064 11.1222 34.8667C11.4461 34.4349 11.7701 34.1111 12.202 33.7872C12.8499 33.3555 13.1738 32.7078 13.2818 31.9522C13.3898 31.4124 13.3898 30.8727 13.3898 30.333C13.3898 29.9012 13.4978 29.4694 13.6058 29.0376C13.8217 28.174 14.4696 27.6343 15.1175 27.0946C15.6574 26.7708 16.3053 26.4469 16.8452 26.1231C18.681 25.1516 20.4087 23.9642 21.9204 22.5609C22.7843 21.8052 23.5402 20.9417 24.0801 19.8622C24.1881 19.7543 24.1881 19.5384 24.2961 19.4304C24.2961 19.3225 24.404 19.3225 24.512 19.3225C25.5918 19.4304 26.7797 19.3225 27.8595 19.2145C29.1553 18.9986 30.4511 18.6748 31.6389 18.0271C32.6107 17.4874 33.2586 16.8397 33.7985 15.8682C33.7985 15.7603 33.7985 15.7603 33.9065 15.7603C34.7704 16.4079 35.7422 16.6238 36.7141 16.5159Z"
            fill="#171747" />
        <path
            d="M8.53076 47.6042C8.63874 47.2803 8.85471 46.8485 8.96269 46.5247C9.28664 45.7691 9.50261 45.0135 9.39462 44.2578C9.39462 43.7181 9.61059 43.1784 9.93454 42.7466C10.1505 42.4228 10.3665 42.2069 10.6904 41.991C10.9064 41.7751 11.2303 41.4512 11.3383 41.1274C11.4463 41.2353 11.5543 41.3433 11.6623 41.3433C11.8782 41.4512 12.2022 41.5592 12.4181 41.4512C12.5261 41.4512 12.6341 41.3433 12.6341 41.1274C12.6341 40.0479 12.8501 38.9685 13.498 38.1049C13.9299 37.3493 14.6858 36.8096 15.4417 36.4857C15.5496 36.4857 15.5496 36.4857 15.5496 36.3778C15.5496 35.1904 15.8736 34.003 16.3055 32.9235C16.9534 31.5202 17.7093 30.2249 18.7891 29.0374C19.329 28.3898 20.0849 28.0659 20.9488 27.85C21.9206 27.6341 22.7845 27.5262 23.7563 27.4183C24.4042 27.4183 24.8361 27.0944 25.1601 26.5547C25.1601 26.6626 25.1601 26.7706 25.1601 26.8785C25.0521 27.6341 25.2681 28.3898 25.7 29.0374C25.808 29.2533 25.916 29.3613 26.1319 29.5772C25.7 29.5772 25.3761 29.6851 24.9441 29.7931C22.8925 30.2249 20.9488 30.9805 19.329 32.2758C18.5731 32.8156 18.0332 33.5712 17.6013 34.3268C16.7374 35.946 16.8454 37.4572 17.8173 39.0764C17.9253 39.1844 18.0332 39.4003 18.1412 39.5082C18.2492 39.6162 18.3572 39.832 18.4652 39.94C18.2492 39.94 18.0332 40.0479 17.9253 40.0479C16.5215 40.3718 15.2257 40.8036 13.9299 41.5592C13.282 41.883 12.7421 42.3148 12.2022 42.8545C11.6623 43.3943 11.3383 44.1499 11.4463 44.9055C11.4463 45.4452 11.6623 45.877 11.8782 46.3088C11.8782 46.4168 11.9862 46.4168 11.9862 46.5247C11.8782 46.5247 11.7702 46.5247 11.6623 46.4168C10.7984 46.3088 9.93454 46.5247 9.17866 47.0644C8.96269 47.2803 8.74673 47.4962 8.63874 47.6042C8.63874 47.6042 8.63874 47.7121 8.53076 47.6042Z"
            fill="#F3EDE1" />
        <path
            d="M25.5918 25.799C26.0237 24.5036 26.7796 23.3162 28.1834 22.7765C28.6153 22.6685 29.0472 22.5606 29.4792 22.4526C29.5872 22.4526 29.6951 22.4526 29.8031 22.4526C30.1271 22.4526 30.451 22.4526 30.8829 22.4526C30.9909 22.4526 31.0989 22.4526 31.0989 22.4526C30.8829 23.5321 30.0191 23.9639 29.0472 24.2877C28.6153 24.3957 28.2914 24.3957 27.8594 24.5036C26.8876 24.6116 26.2397 25.0433 25.5918 25.799Z"
            fill="#F3EDE1" />
        <path d="M36.7139 16.5157C36.8218 16.4078 36.8218 16.5157 36.7139 16.5157V16.5157Z"
            fill="#171747" />
        <path
            d="M29.695 22.4528C29.5871 22.4528 29.4791 22.4528 29.3711 22.4528C29.4791 22.4528 29.5871 22.3448 29.695 22.4528Z"
            fill="#B8CA34" />
    </g>
    <defs>
        <clipPath id="clip0_11984_1177">
            <rect width="349" height="72" fill="white" />
        </clipPath>
    </defs>
</svg>