<svg width="24" height="25" viewBox="0 0 24 25" fill="none" xmlns="http://www.w3.org/2000/svg">
    <path
        d="M2 7.90576L10.1649 13.6212C10.8261 14.084 11.1567 14.3154 11.5163 14.4051C11.8339 14.4842 12.1661 14.4842 12.4837 14.4051C12.8433 14.3154 13.1739 14.084 13.8351 13.6212L22 7.90576M6.8 20.9058H17.2C18.8802 20.9058 19.7202 20.9058 20.362 20.5788C20.9265 20.2912 21.3854 19.8322 21.673 19.2677C22 18.626 22 17.7859 22 16.1058V9.70576C22 8.0256 22 7.18553 21.673 6.54379C21.3854 5.9793 20.9265 5.52036 20.362 5.23274C19.7202 4.90576 18.8802 4.90576 17.2 4.90576H6.8C5.11984 4.90576 4.27976 4.90576 3.63803 5.23274C3.07354 5.52036 2.6146 5.9793 2.32698 6.54379C2 7.18553 2 8.0256 2 9.70576V16.1058C2 17.7859 2 18.626 2.32698 19.2677C2.6146 19.8322 3.07354 20.2912 3.63803 20.5788C4.27976 20.9058 5.11984 20.9058 6.8 20.9058Z"
        stroke="black" stroke-width="2" stroke-linecap="round" stroke-linejoin="round" />
</svg>