<svg xmlns="http://www.w3.org/2000/svg" width="20" height="20" viewBox="0 0 20 20" fill="none">
    <path
        d="M13.3879 7.96088C13.4215 7.92729 13.3879 7.8937 13.3879 7.86011C13.3879 8.43114 13.2535 8.93499 13.052 9.47243C12.9512 9.77474 12.8504 10.0771 12.884 10.413C12.884 10.7153 12.9848 10.9504 13.2199 11.1519C13.2535 11.1855 13.2871 11.2191 13.3543 11.2191C13.3879 11.2527 13.3879 11.2527 13.3879 11.2863C13.3207 11.3871 13.2535 11.4878 13.1863 11.555C13.0184 11.723 12.8168 11.8237 12.6489 11.9581C12.313 12.1932 11.9771 12.3948 11.6748 12.6635C11.574 12.7643 11.4732 12.8314 11.4061 12.9322C11.3053 13.0666 11.2381 13.2009 11.2045 13.3689C11.1373 13.604 11.1373 13.8391 11.2045 14.0743C11.2381 14.2086 11.3389 14.3094 11.4397 14.4102C11.3053 14.4438 11.2045 14.5109 11.1038 14.6117C10.9358 14.7461 10.8014 14.9476 10.7679 15.1492C10.7679 15.2163 10.7679 15.2499 10.7679 15.3171C10.7679 15.3507 10.7679 15.3507 10.7343 15.3507C10.5327 15.2835 10.2976 15.2499 10.0961 15.2163C9.65938 15.1827 9.22271 15.2163 8.85322 15.4515C8.61809 15.5858 8.45014 15.7538 8.31578 15.9889C8.2486 16.1569 8.2486 16.2912 8.28219 16.4592C8.28219 16.4928 8.28219 16.4928 8.2486 16.4928C7.81193 16.4928 7.40885 16.5263 7.00577 16.7279C6.66987 16.8958 6.40115 17.0974 6.19961 17.3997C6.19961 17.3997 6.19961 17.4333 6.16602 17.4333C6.30038 17.0638 6.46833 16.7279 6.73705 16.4592C6.83782 16.3584 6.93859 16.2576 7.07295 16.1904C7.27449 16.0897 7.47603 16.0561 7.67757 16.1569C7.71116 16.1569 7.71116 16.1569 7.74475 16.1233C7.77834 15.9889 7.81193 15.8545 7.84552 15.7538C7.94629 15.5522 8.08065 15.3843 8.31578 15.3171C8.41655 15.2835 8.51732 15.2835 8.61809 15.3171C8.78604 15.3171 8.9204 15.3507 9.08835 15.3171C9.35707 15.2835 9.49143 15.1156 9.55861 14.8468C9.5922 14.6789 9.62579 14.5109 9.65938 14.3766C9.69297 14.175 9.79374 13.9735 9.96169 13.8391C10.0289 13.8055 10.0625 13.772 10.1296 13.7384C10.432 13.5704 10.7007 13.3353 10.9022 13.0666C11.1373 12.7643 11.2717 12.3948 11.3389 12.0253C11.3725 11.8237 11.4397 11.6222 11.4732 11.4207C11.5068 11.2863 11.574 11.1855 11.6748 11.0848C12.0443 10.7153 12.3802 10.3122 12.6825 9.87551C12.9848 9.47243 13.2199 9.00217 13.3207 8.53191C13.3207 8.33037 13.3543 8.16242 13.3879 7.96088Z"
        fill="#F3EDE1" />
    <path
        d="M7.97767 4.90405C7.97767 4.93764 7.94408 4.97123 7.91049 4.97123C7.67536 5.20636 7.44023 5.44149 7.27228 5.7438C7.13792 5.97893 7.07074 6.21406 7.07074 6.48279C7.07074 6.68433 7.10433 6.85228 7.17151 7.02023C7.17151 7.05382 7.17151 7.05382 7.13792 7.08741C7.00356 7.15459 6.8692 7.22177 6.73484 7.32254C6.60048 7.4569 6.5333 7.62485 6.56689 7.7928C6.56689 7.82639 6.56689 7.89357 6.56689 7.92716C6.56689 7.96075 6.56689 7.99434 6.5333 7.99434C6.06303 8.02793 5.62636 8.16229 5.22328 8.4646C5.02174 8.59896 4.88738 8.76691 4.75302 8.96845C4.55148 9.33794 4.51789 9.70743 4.71943 10.1105C4.71943 10.1441 4.75302 10.1441 4.75302 10.1777C4.71943 10.1777 4.68584 10.1777 4.61866 10.1441C4.41712 10.1105 4.21558 10.1777 4.01404 10.2449C3.94686 10.2785 3.91327 10.2785 3.84609 10.3121C3.8125 10.3121 3.8125 10.3121 3.8125 10.3121C3.84609 10.3121 3.84609 10.2785 3.84609 10.2785C4.08122 9.94256 4.18199 9.57307 4.18199 9.16999C4.18199 9.00204 4.1484 8.86768 4.11481 8.69973C4.04763 8.43101 4.11481 8.16229 4.24917 7.92716C4.41712 7.59126 4.68584 7.38972 5.02174 7.25536C5.35764 7.121 5.69354 7.05382 6.02944 7.02023C6.19739 7.02023 6.39894 6.98664 6.56689 7.02023C6.60048 7.02023 6.60048 7.02023 6.60048 6.98664C6.56688 6.7851 6.60048 6.58356 6.63407 6.38202C6.76843 5.64303 7.17151 5.17277 7.8769 4.93764C7.91049 4.93764 7.94408 4.90405 7.97767 4.90405Z"
        fill="#F3EDE1" />
    <path
        d="M12.0437 3.96366C11.7414 3.96366 11.5063 4.1652 11.3047 4.40034C11.1704 4.56829 11.0696 4.73624 11.036 4.93778C11.036 5.00496 11.0024 5.03855 11.036 5.10573C11.036 5.13932 11.036 5.13932 11.0024 5.13932C10.7337 5.17291 10.465 5.2065 10.1963 5.17291C9.99471 5.13932 9.79317 5.10573 9.59163 5.03855C9.22214 4.8706 8.85265 4.80342 8.48316 4.80342C8.3488 4.80342 8.21444 4.83701 8.11367 4.8706C8.11367 4.8706 8.08008 4.90419 8.08008 4.8706C8.21444 4.80342 8.3488 4.80342 8.51675 4.80342C8.75188 4.80342 9.0206 4.80342 9.25573 4.76983C9.45727 4.76983 9.65881 4.73624 9.82676 4.66906C9.89394 4.63547 9.96112 4.60188 10.0283 4.56829C10.0619 4.5347 10.0619 4.56829 10.0955 4.56829C10.2298 4.63547 10.3642 4.70265 10.4986 4.70265C10.7001 4.70265 10.8345 4.60188 10.8345 4.40034C10.8345 4.26598 10.9016 4.19879 11.0024 4.09802C11.1368 3.99725 11.3383 3.93007 11.5063 3.89648C11.6742 3.89648 11.8758 3.93007 12.0437 3.96366Z"
        fill="#F3EDE1" />
    <path
        d="M8.48288 18.7433C8.34852 18.8776 8.18057 18.9784 7.97903 19.0792C7.77749 19.1799 7.54236 19.2135 7.34082 19.2471C6.80338 19.3143 6.26594 19.2471 5.76209 19.012C5.52696 18.9112 5.29183 18.7433 5.12388 18.5081C5.12388 18.4745 5.09029 18.4745 5.09029 18.5081C4.78798 18.6425 4.48566 18.7097 4.18335 18.7433C3.88104 18.7768 3.57873 18.7433 3.27642 18.7097C3.07488 18.7097 2.83975 18.6761 2.63821 18.6761C2.53744 18.6761 2.47026 18.6761 2.36949 18.7097C2.3359 18.7433 2.26872 18.7433 2.23513 18.7433C2.16795 18.7433 2.13436 18.7097 2.16795 18.6425C2.3359 18.2394 2.50385 17.8363 2.63821 17.3997C2.70539 17.1645 2.73898 16.9294 2.83975 16.6943C2.87334 16.5599 2.94052 16.4255 3.0077 16.2912C3.0077 16.2576 3.0077 16.1904 3.0077 16.1568C3.04129 16.0896 3.0077 16.0561 2.94052 16.0225C2.6718 15.8209 2.47026 15.6194 2.3359 15.3507C2.20154 15.0819 2.10077 14.8132 2.13436 14.5109C2.13436 14.4101 2.13436 14.2758 2.13436 14.175C2.16795 13.7719 2.30231 13.4024 2.53744 13.1001C2.57103 13.0329 2.57103 13.0329 2.53744 12.9994C2.43667 12.8986 2.36949 12.7978 2.30231 12.6635C2.16795 12.4283 2.10077 12.1596 2.06718 11.8573C2 11.6558 2 11.4542 2 11.2527C2.06718 10.5809 2.36949 10.0098 2.97411 9.64035C3.0077 9.64035 3.0077 9.60676 3.0077 9.57317C2.94052 9.40522 2.94052 9.23727 2.90693 9.06932C2.90693 8.90137 2.87334 8.69983 2.90693 8.53188C2.94052 7.89366 3.10847 7.28904 3.54514 6.78519C3.84745 6.4157 4.25053 6.18057 4.72079 6.04621C5.02311 5.97903 5.32542 5.94544 5.62773 5.94544C5.66132 5.94544 5.69491 5.94544 5.69491 5.87826C5.7285 4.83697 6.4003 4.09799 7.27364 3.82927C7.64313 3.7285 8.01262 3.66132 8.38211 3.69491C8.78519 3.7285 9.15468 3.82927 9.52417 3.96363C9.55776 3.96363 9.55776 3.99722 9.55776 3.93004C9.62494 3.49337 9.86007 3.15747 10.2296 2.95593C10.4983 2.78798 10.767 2.7208 11.1029 2.68721C11.4724 2.65361 11.8419 2.65361 12.2114 2.75439C12.3793 2.82157 12.5473 2.88875 12.7152 2.98952C12.7824 3.0567 12.8496 3.09029 12.8832 3.19106C12.9168 3.22465 12.9168 3.22465 12.9504 3.19106C13.1183 3.09029 13.2863 2.98952 13.4542 2.92234C13.8573 2.78798 14.1932 2.88875 14.5291 3.15747C14.5963 3.19106 14.5963 3.19106 14.5963 3.12388C14.6299 2.98952 14.6635 2.88875 14.6299 2.75439C14.5963 2.38489 14.4283 2.08258 14.1932 1.78027C13.8909 1.41078 13.4878 1.17565 13.0175 1.07488C12.7488 1.0077 12.4465 1.0077 12.1778 1.04129C11.8419 1.07488 11.506 1.17565 11.1701 1.27642C11.0357 1.31001 10.935 1.3436 10.8006 1.3436C10.6326 1.3436 10.5319 1.27642 10.4311 1.14206C10.3639 1.04129 10.3303 0.906932 10.2967 0.772571C10.2967 0.638211 10.3303 0.537441 10.4647 0.436671C10.5655 0.403081 10.7334 0.335901 10.8678 0.302311C11.2037 0.20154 11.5396 0.10077 11.8755 0.0671801C12.1778 0 12.4801 0 12.816 0C13.1855 0.0335901 13.5214 0.10077 13.8573 0.23513C14.3611 0.436671 14.7642 0.772572 15.1001 1.24283C15.3353 1.57873 15.5368 1.94822 15.6376 2.31771C15.7047 2.48566 15.7047 2.68721 15.7047 2.88875C15.7047 3.09029 15.6712 3.25824 15.6376 3.45978C15.6376 3.49337 15.6376 3.52696 15.7047 3.56055C16.1414 3.7285 16.4773 4.03081 16.7796 4.36671C17.2499 4.90415 17.5522 5.50877 17.7201 6.18057C17.7873 6.38211 17.8209 6.58365 17.8209 6.81878C17.8545 7.02032 17.8545 7.22186 17.8209 7.4234C17.7873 7.75931 17.6866 8.06162 17.485 8.29675C17.4514 8.33034 17.485 8.33034 17.485 8.36393C17.653 8.56547 17.7873 8.76701 17.8881 9.00214C18.0225 9.30445 18.0896 9.60676 18.0896 9.90907C18.0896 10.3121 17.9889 10.6816 17.7873 11.0175C17.653 11.2863 17.4514 11.5214 17.2163 11.7229C17.1827 11.7565 17.1491 11.7565 17.1491 11.7901C17.1155 11.7901 17.1155 11.8237 17.1491 11.8573C17.2835 12.0924 17.3507 12.3276 17.4178 12.5963C17.4514 12.8314 17.485 13.0665 17.4514 13.2681C17.4178 13.7383 17.2835 14.1414 17.0148 14.5445C16.6789 15.0483 16.175 15.3507 15.604 15.5186C15.5368 15.5522 15.5368 15.5522 15.5368 15.6194C15.6712 16.1568 15.604 16.6607 15.3017 17.1309C14.9658 17.6684 14.4955 18.0043 13.9245 18.2394C13.5886 18.3738 13.2527 18.4409 12.9168 18.4409C12.8832 18.4409 12.8832 18.4745 12.8496 18.4745C12.7152 18.844 12.5137 19.1799 12.245 19.4151C11.9427 19.6838 11.5732 19.8853 11.1701 19.9525C10.935 19.9861 10.6998 20.0197 10.4647 19.9861C9.99443 19.9525 9.59135 19.7845 9.18827 19.4822C8.91955 19.2807 8.71801 19.0456 8.55006 18.7768C8.48288 18.7768 8.48288 18.7768 8.48288 18.7433ZM13.387 7.96085C13.387 8.1288 13.3534 8.33034 13.2863 8.49829C13.1519 9.00214 12.9168 9.43881 12.648 9.84189C12.3457 10.2786 12.0098 10.6816 11.6403 11.0511C11.5396 11.1519 11.4724 11.2527 11.4388 11.387C11.3716 11.5886 11.338 11.7901 11.3044 11.9917C11.2373 12.3611 11.1029 12.7306 10.8678 13.0329C10.6662 13.3017 10.3975 13.5368 10.0952 13.7047C10.028 13.7383 9.99443 13.7719 9.92725 13.8055C9.7593 13.9399 9.65853 14.1414 9.62494 14.343C9.59135 14.5109 9.55776 14.6789 9.52417 14.8132C9.45699 15.0819 9.28904 15.2163 9.05391 15.2835C8.88596 15.3171 8.7516 15.3171 8.58365 15.2835C8.48288 15.2835 8.38211 15.2499 8.28134 15.2835C8.04621 15.3507 7.91185 15.5186 7.81108 15.7201C7.7439 15.8545 7.7439 15.9553 7.71031 16.0896C7.71031 16.1232 7.67672 16.1232 7.64313 16.1232C7.44159 16.0561 7.24005 16.056 7.03851 16.1568C6.90415 16.224 6.80338 16.3248 6.70261 16.4255C6.43389 16.6943 6.26594 17.0302 6.13158 17.3997C6.09799 17.4668 6.09799 17.534 6.0644 17.6012V17.6348C6.19876 18.0043 6.50107 18.1722 6.87056 18.0379C7.24005 17.9035 7.50877 17.6684 7.71031 17.3325C7.7439 17.2653 7.77749 17.1645 7.81108 17.0638C7.81108 17.0302 7.77749 16.9966 7.81108 16.9966C7.84467 16.9966 7.84467 16.9966 7.87826 16.9966C7.87826 16.9966 7.87826 16.9966 7.91185 16.9966C8.28134 17.0302 8.65083 17.0973 9.05391 17.0973C9.35622 17.0973 9.65853 17.0973 9.92725 16.9966C10.1624 16.9294 10.3639 16.795 10.4983 16.5599C10.5991 16.392 10.6326 16.1904 10.6326 15.9889C10.6326 15.9553 10.6326 15.9553 10.6998 15.9553C10.8006 15.9889 10.9014 15.9889 11.0021 15.9889C11.3716 16.0225 11.7075 15.9889 12.0098 15.7873C12.2786 15.6194 12.4465 15.3842 12.6145 15.1491C12.816 14.8132 12.9168 14.4773 13.0511 14.1414C13.1519 13.8727 13.2863 13.6712 13.5214 13.5368C13.6558 13.436 13.8237 13.3353 13.9581 13.2345C14.294 13.0329 14.4955 12.7642 14.5963 12.3947C14.6635 12.126 14.6635 11.8909 14.6299 11.6222C14.6299 11.4878 14.5963 11.387 14.5963 11.2527C14.5963 11.2191 14.5963 11.2191 14.6299 11.2191C14.7306 11.2191 14.7978 11.1855 14.8986 11.1183C14.9994 11.0175 15.0665 10.8832 15.1337 10.7824C15.2681 10.4801 15.3353 10.1442 15.3688 9.77471C15.4024 9.50599 15.4024 9.20368 15.3353 8.93496C15.3017 8.76701 15.2345 8.63265 15.1001 8.53188C14.7642 8.22957 14.5291 7.86007 14.4283 7.38981C14.3276 6.98673 14.3611 6.61724 14.4619 6.24775C14.4955 6.01262 14.5627 5.77749 14.5963 5.54236C14.5963 5.408 14.6299 5.27364 14.5627 5.17287C14.5627 5.13928 14.5291 5.13928 14.4955 5.13928C14.3611 5.13928 14.2604 5.13928 14.126 5.10569C13.9245 5.03851 13.7901 4.87056 13.7901 4.66902C13.7901 4.53466 13.8237 4.4003 13.8573 4.29953C13.8909 4.19876 13.9581 4.09799 14.0252 3.99722C14.0252 3.99722 14.0588 3.96363 14.0252 3.96363H13.9917C13.8909 3.99722 13.7901 3.99722 13.6893 3.96363C13.5886 3.96363 13.5214 3.96363 13.4206 3.96363C13.1519 3.96363 13.0511 4.0644 12.9839 4.33312V4.36671C12.9504 4.36671 12.9504 4.33312 12.9168 4.33312C12.7824 4.23235 12.648 4.13158 12.5137 4.0644C12.3793 3.99722 12.245 3.89645 12.077 3.89645C11.9091 3.82927 11.7075 3.82927 11.5396 3.86286C11.3716 3.89645 11.1701 3.93004 11.0357 4.0644C10.935 4.13158 10.8678 4.23235 10.8678 4.36671C10.8342 4.56825 10.6998 4.66902 10.5319 4.66902C10.3639 4.66902 10.2296 4.60184 10.1288 4.53466C10.0952 4.53466 10.0952 4.50107 10.0616 4.53466C9.99443 4.56825 9.92725 4.63543 9.86007 4.63543C9.65853 4.70261 9.49058 4.7362 9.28904 4.7362C9.05391 4.76979 8.78519 4.7362 8.55006 4.76979C8.4157 4.76979 8.24775 4.76979 8.11339 4.83697C8.0798 4.83697 8.04621 4.83697 8.04621 4.87056C8.01262 4.87056 7.97903 4.87056 7.94544 4.90415C7.24005 5.13928 6.80338 5.60954 6.70261 6.34852C6.66902 6.55006 6.66902 6.7516 6.66902 6.95314C6.66902 6.98673 6.66902 6.98673 6.63543 6.98673C6.46748 6.98673 6.26594 6.98673 6.09799 6.98673C5.76209 7.02032 5.42619 7.0875 5.12388 7.22186C4.78798 7.38981 4.51925 7.59135 4.3513 7.89366C4.21694 8.1288 4.14976 8.39752 4.21694 8.66624C4.25053 8.83419 4.28412 8.96855 4.28412 9.1365C4.28412 9.53958 4.14976 9.90907 3.94822 10.245L3.91463 10.2786C3.61232 10.4465 3.37719 10.6816 3.27642 11.0175C3.17565 11.3199 3.14206 11.5886 3.20924 11.8909C3.27642 12.294 3.47796 12.6299 3.78027 12.8986C3.81386 12.9322 3.81386 12.9322 3.81386 12.9658C3.78027 13.0665 3.74668 13.1673 3.71309 13.2681C3.61232 13.5368 3.54514 13.8391 3.44437 14.1078C3.37719 14.2758 3.3436 14.3765 3.3436 14.4773C3.3436 14.7796 3.44437 15.0148 3.57873 15.2499C3.71309 15.4514 3.88104 15.653 4.04899 15.8545C4.11617 15.9553 4.18335 16.0225 4.25053 16.1568C4.31771 16.3248 4.31771 16.4591 4.18335 16.5599C4.11617 16.6271 4.04899 16.6943 4.0154 16.7614C3.94822 16.8622 3.88104 16.963 3.84745 17.0973C3.81386 17.1981 3.81386 17.2989 3.88104 17.3997C3.88104 17.4332 3.91463 17.4332 3.94822 17.4332C4.08258 17.4332 4.21694 17.4668 4.3513 17.4668C4.65361 17.4332 4.92234 17.2653 5.15747 17.0302C5.3926 16.7614 5.56055 16.4591 5.66132 16.0896C5.7285 15.8209 5.79568 15.5858 5.82927 15.3171C5.82927 15.2835 5.86286 15.2499 5.89645 15.2499C5.99722 15.2499 6.09799 15.2499 6.19876 15.2499C6.53466 15.2499 6.90415 15.2163 7.24005 15.1491C7.57595 15.0483 7.87826 14.8804 8.0798 14.5781C8.18057 14.4101 8.24775 14.2758 8.31493 14.0742C8.4157 13.7383 8.51647 13.4024 8.55006 13.0665C8.55006 12.9994 8.55006 12.9994 8.65083 13.0329C8.98673 13.1673 9.25545 13.1337 9.49058 12.8314L9.52417 12.7978C9.65853 12.6299 9.7593 12.4283 9.82648 12.2604C9.99443 11.8909 10.1288 11.5214 10.2632 11.1855C10.4311 10.7824 10.5991 10.4129 10.8342 10.0434C11.0357 9.70753 11.338 9.50599 11.7075 9.37163C11.9091 9.30445 12.1106 9.27086 12.3121 9.23727C12.4465 9.20368 12.5809 9.17009 12.6816 9.06932C13.0175 8.8006 13.2863 8.4647 13.387 8.02802C13.3534 7.99443 13.3534 7.96085 13.387 7.96085ZM15.5368 11.8909C15.6376 11.8573 15.7383 11.8237 15.8055 11.7565C15.8727 11.6893 15.9735 11.6558 16.0406 11.5886C16.2758 11.387 16.4773 11.1519 16.6789 10.9168C16.914 10.6816 16.9812 10.3793 17.0148 10.0434C17.0148 9.77471 16.9812 9.50599 16.8804 9.27086C16.7124 8.8006 16.4773 8.36393 16.175 7.96085C16.1414 7.92726 16.1414 7.92726 16.175 7.89366C16.2422 7.82648 16.343 7.7593 16.4101 7.65853C16.4437 7.59135 16.5109 7.52417 16.5445 7.45699C16.6789 7.0875 16.7124 6.71801 16.6117 6.34852C16.5109 5.91185 16.2422 5.54236 15.9399 5.20646C15.9063 5.17287 15.8727 5.13928 15.8391 5.10569C15.8391 5.13928 15.8391 5.20646 15.8727 5.24005C15.9063 5.50877 15.6376 5.81108 15.3353 5.67672C15.3017 5.67672 15.3017 5.67672 15.3017 5.71031C15.2681 5.84467 15.2681 6.01262 15.2345 6.14698C15.2009 6.44929 15.2345 6.71801 15.2681 7.02032C15.3017 7.25545 15.3353 7.49058 15.4696 7.72571C15.5704 7.89366 15.6712 8.06161 15.7719 8.26316C15.9399 8.53188 16.0071 8.83419 15.9063 9.17009V9.20368C15.9735 9.23727 16.0071 9.33804 16.0406 9.40522C16.1078 9.64035 16.175 9.87548 16.175 10.1106C16.2086 10.4465 16.175 10.7488 16.1078 11.0511C15.9735 11.387 15.8391 11.6558 15.5368 11.8909C15.5368 12.1596 15.5368 12.4283 15.5032 12.6635C15.436 13.4024 15.0329 13.9735 14.5291 14.4437C14.4955 14.4773 14.4619 14.4773 14.4619 14.5109C14.4619 14.5445 14.5291 14.5445 14.5627 14.5445C14.8986 14.5109 15.2009 14.4437 15.4696 14.2758C15.7047 14.1414 15.8727 13.9735 15.9399 13.7047C16.0406 13.4696 16.0071 13.2009 15.9735 12.9322C15.9399 12.5963 15.7719 12.2268 15.5368 11.8909ZM9.28904 17.7691C9.35622 17.8363 9.38981 17.9035 9.4234 17.9707C9.45699 18.0379 9.45699 18.1386 9.49058 18.2058C9.55776 18.4409 9.69212 18.6089 9.92725 18.7097C10.0952 18.7768 10.2967 18.8104 10.4983 18.8104C11.1701 18.844 11.6068 18.3402 11.5732 17.6684C11.5396 17.4668 11.6068 17.2653 11.7747 17.0973C11.8419 17.0302 11.9091 17.0302 12.0098 17.0302C12.077 17.0302 12.1442 17.0638 12.2114 17.0638C12.4801 17.1309 12.7488 17.1645 13.0175 17.1645C13.3198 17.1645 13.6222 17.0638 13.8573 16.8286C14.2268 16.4591 14.3947 16.0225 14.3276 15.485C14.3276 15.3507 14.2604 15.2499 14.1932 15.1491C14.1596 15.1155 14.1596 15.1155 14.1596 15.1491C14.126 15.2163 14.126 15.2499 14.0924 15.3171C13.8237 15.7201 13.4878 16.0225 13.0511 16.2576C12.648 16.4927 12.245 16.5935 11.7747 16.5599C11.7411 16.5599 11.7411 16.5599 11.7411 16.5935C11.7075 16.7279 11.6739 16.8958 11.6068 17.0302C11.4388 17.3661 11.1701 17.5676 10.8006 17.6684C10.4647 17.7691 10.1288 17.7691 9.7593 17.7691C9.55776 17.8027 9.4234 17.8027 9.28904 17.7691Z"
        fill="#44403C" />
    <path
        d="M13.4197 5.13918C13.4197 5.17277 13.3861 5.17277 13.3861 5.17277C13.2517 5.23995 13.151 5.30713 13.0502 5.4079C12.7479 5.67662 12.6471 5.97893 12.7815 6.38202C12.8151 6.4492 12.8487 6.54997 12.8823 6.61715C12.9158 6.68433 12.9158 6.71792 12.9158 6.7851C12.9158 6.88587 12.8487 6.95305 12.7815 6.98664C12.6807 7.02023 12.6135 7.05382 12.5128 7.05382C12.3784 7.05382 12.2105 7.02023 12.0761 7.02023C11.841 6.98664 11.5722 6.98664 11.3371 7.02023H11.3035C11.2699 7.02023 11.2363 7.02023 11.2028 7.02023C11.0684 7.05382 10.934 7.08741 10.7997 7.121C10.363 7.28895 10.1279 7.65844 9.99351 8.06152C9.99351 8.06152 9.99351 8.06152 9.99351 8.09511C9.99351 8.09511 9.99351 8.09511 9.99351 8.1287C9.95992 8.19588 9.92633 8.26306 9.89274 8.33024C9.79197 8.49819 9.65761 8.59896 9.45607 8.59896C9.15376 8.59896 8.85145 8.66614 8.58273 8.73332C8.31401 8.8005 8.07888 8.90127 7.91093 9.10281C7.57503 9.4723 7.3399 9.87538 7.13836 10.3121C6.97041 10.648 6.86964 11.0174 6.90323 11.3869C6.90323 11.4205 6.86964 11.4205 6.86964 11.4205C6.60092 11.5213 6.39938 11.6892 6.26502 11.9244C6.09707 12.2267 5.9963 12.529 5.9963 12.8649C5.9963 12.9321 5.96271 12.9321 5.92912 12.9657C5.82835 12.9993 5.76117 12.9657 5.69399 12.9321C5.6604 12.8985 5.62681 12.8985 5.59322 12.8649C5.55963 12.9657 5.45886 13.0664 5.39168 13.1336C5.3245 13.2008 5.22372 13.3016 5.15654 13.3687C4.98859 13.4359 4.92141 13.6039 4.92141 13.7718C4.92141 14.0405 4.88782 14.2757 4.78705 14.4772C4.75346 14.578 4.68628 14.7123 4.65269 14.8131C4.65269 14.8131 4.65269 14.8131 4.65269 14.8467C4.55192 15.0483 4.41756 15.2498 4.2832 15.4177C4.2832 15.3506 4.2832 15.2834 4.2832 15.2162C4.2832 14.6788 4.35038 14.1413 4.45115 13.6039C4.51833 13.3687 4.58551 13.1672 4.71987 12.9657C4.85423 12.7305 4.92141 12.4954 4.98859 12.2267C5.05577 11.9244 5.12295 11.6557 5.22372 11.3533C5.2909 11.1854 5.35809 11.0174 5.45886 10.8495C5.55963 10.7151 5.6604 10.6144 5.79476 10.5136C5.9963 10.3792 6.09707 10.1777 6.13066 9.94256C6.16425 9.77461 6.16425 9.60666 6.16425 9.43871C6.16425 9.30435 6.19784 9.16999 6.23143 9.03563C6.29861 8.76691 6.50015 8.59896 6.70169 8.43101C6.86964 8.33024 7.07118 8.22947 7.23913 8.1287C7.81016 7.82639 8.3476 7.4569 8.81786 7.02023C9.08658 6.7851 9.32171 6.51638 9.48966 6.18047C9.52325 6.14688 9.52325 6.0797 9.55684 6.04611C9.55684 6.01252 9.59043 6.01252 9.62402 6.01252C9.95992 6.04611 10.3294 6.01252 10.6653 5.97893C11.0684 5.91175 11.4715 5.81098 11.841 5.60944C12.1433 5.44149 12.3448 5.23995 12.5128 4.93764C12.5128 4.90405 12.5128 4.90405 12.5464 4.90405C12.8151 5.10559 13.1174 5.17277 13.4197 5.13918Z"
        fill="#44403C" />
    <path
        d="M4.65234 14.8132C4.68593 14.7125 4.75311 14.5781 4.7867 14.4773C4.88747 14.2422 4.95465 14.0071 4.92106 13.772C4.92106 13.604 4.98824 13.4361 5.08901 13.3017C5.15619 13.2009 5.22337 13.1337 5.32414 13.0666C5.39132 12.9994 5.4921 12.8986 5.52569 12.7978C5.55928 12.8314 5.59287 12.865 5.62646 12.865C5.69364 12.8986 5.79441 12.9322 5.86159 12.8986C5.89518 12.8986 5.92877 12.865 5.92877 12.7978C5.92877 12.4619 5.99595 12.126 6.19749 11.8573C6.33185 11.6222 6.56698 11.4542 6.80211 11.3535C6.8357 11.3535 6.8357 11.3535 6.8357 11.3199C6.8357 10.9504 6.93647 10.5809 7.07083 10.245C7.27237 9.80833 7.5075 9.40525 7.8434 9.03575C8.01135 8.83421 8.24648 8.73344 8.5152 8.66626C8.81751 8.59908 9.08623 8.56549 9.38854 8.5319C9.59008 8.5319 9.72444 8.43113 9.82521 8.26318C9.82521 8.29677 9.82521 8.33036 9.82521 8.36395C9.79162 8.59908 9.8588 8.83421 9.99316 9.03575C10.0268 9.10293 10.0603 9.13652 10.1275 9.20371C9.99316 9.20371 9.89239 9.2373 9.75803 9.27089C9.11982 9.40525 8.5152 9.64038 8.01135 10.0435C7.77622 10.2114 7.60827 10.4465 7.47391 10.6817C7.20519 11.1855 7.23878 11.6558 7.54109 12.1596C7.57468 12.1932 7.60827 12.2604 7.64186 12.294C7.67545 12.3276 7.70904 12.3948 7.74263 12.4284C7.67545 12.4284 7.60827 12.4619 7.57468 12.4619C7.13801 12.5627 6.73493 12.6971 6.33185 12.9322C6.13031 13.033 5.96236 13.1673 5.79441 13.3353C5.62646 13.5032 5.52569 13.7384 5.55928 13.9735C5.55928 14.1414 5.62646 14.2758 5.69364 14.4102C5.69364 14.4438 5.72723 14.4438 5.72723 14.4773C5.69364 14.4773 5.66005 14.4773 5.62646 14.4438C5.35774 14.4102 5.08901 14.4773 4.85388 14.6453C4.7867 14.7125 4.71952 14.7797 4.68593 14.8132C4.68593 14.8132 4.68593 14.8468 4.65234 14.8132Z"
        fill="#F3EDE1" />
    <path
        d="M9.96094 8.02811C10.0953 7.62503 10.3304 7.25554 10.7671 7.08759C10.9015 7.054 11.0358 7.02041 11.1702 6.98682C11.2038 6.98682 11.2374 6.98682 11.2709 6.98682C11.3717 6.98682 11.4725 6.98682 11.6069 6.98682C11.6404 6.98682 11.674 6.98682 11.674 6.98682C11.6068 7.32272 11.3381 7.45708 11.0358 7.55785C10.9015 7.59144 10.8007 7.59144 10.6663 7.62503C10.364 7.65862 10.1625 7.79298 9.96094 8.02811Z"
        fill="#F3EDE1" />
    <path d="M13.4199 5.1392C13.4535 5.10561 13.4535 5.1392 13.4199 5.1392V5.1392Z" fill="#44403C" />
</svg>
