<svg width="24" height="25" viewBox="0 0 24 25" fill="none" xmlns="http://www.w3.org/2000/svg">
    <g clip-path="url(#clip0_10054_733)">
        <path
            d="M14.0497 6.90576C15.0264 7.09633 15.924 7.57402 16.6277 8.2777C17.3314 8.98138 17.8091 9.87903 17.9997 10.8558M14.0497 2.90576C16.0789 3.1312 17.9713 4.03994 19.4159 5.48277C20.8606 6.9256 21.7717 8.81677 21.9997 10.8458M10.2266 14.7688C9.02506 13.5673 8.07627 12.2086 7.38028 10.759C7.32041 10.6343 7.29048 10.572 7.26748 10.4931C7.18576 10.2127 7.24446 9.86845 7.41447 9.63102C7.46231 9.56421 7.51947 9.50705 7.63378 9.39274C7.98338 9.04314 8.15819 8.86833 8.27247 8.69255C8.70347 8.02966 8.70347 7.17508 8.27247 6.51219C8.15819 6.33642 7.98338 6.16161 7.63378 5.81201L7.43891 5.61714C6.90747 5.08569 6.64174 4.81997 6.35636 4.67563C5.7888 4.38856 5.11854 4.38856 4.55098 4.67563C4.2656 4.81997 3.99987 5.08569 3.46843 5.61714L3.3108 5.77477C2.78117 6.30439 2.51636 6.56921 2.31411 6.92924C2.08969 7.32874 1.92833 7.94924 1.9297 8.40746C1.93092 8.8204 2.01103 9.10263 2.17124 9.66707C3.03221 12.7005 4.65668 15.5628 7.04466 17.9508C9.43264 20.3388 12.295 21.9633 15.3284 22.8242C15.8928 22.9844 16.1751 23.0645 16.588 23.0658C17.0462 23.0671 17.6667 22.9058 18.0662 22.6814C18.4263 22.4791 18.6911 22.2143 19.2207 21.6847L19.3783 21.527C19.9098 20.9956 20.1755 20.7299 20.3198 20.4445C20.6069 19.8769 20.6069 19.2067 20.3198 18.6391C20.1755 18.3537 19.9098 18.088 19.3783 17.5566L19.1835 17.3617C18.8339 17.0121 18.6591 16.8373 18.4833 16.723C17.8204 16.292 16.9658 16.292 16.3029 16.723C16.1271 16.8373 15.9523 17.0121 15.6027 17.3617C15.4884 17.476 15.4313 17.5332 15.3644 17.581C15.127 17.751 14.7828 17.8097 14.5024 17.728C14.4235 17.705 14.3612 17.6751 14.2365 17.6152C12.7869 16.9192 11.4282 15.9704 10.2266 14.7688Z"
            stroke="black" stroke-width="2" stroke-linecap="round" stroke-linejoin="round" />
    </g>
    <defs>
        <clipPath id="clip0_10054_733">
            <rect width="24" height="24" fill="white" transform="translate(0 0.905762)" />
        </clipPath>
    </defs>
</svg>