<svg xmlns="http://www.w3.org/2000/svg" width="25" height="24" viewBox="0 0 25 24" fill="none">
    <path
        d="M18.1434 11.5922C17.8179 11.3472 17.4683 11.1361 17.0999 10.9622C16.7249 8.16 14.8499 7.27688 13.9968 7.01813C12.1424 6.45563 10.0115 7.12969 9.04213 8.58375C8.98747 8.66574 8.94949 8.7577 8.93036 8.85437C8.91124 8.95104 8.91135 9.05054 8.93067 9.14717C8.9697 9.34232 9.08466 9.51398 9.25025 9.62438C9.41585 9.73477 9.61852 9.77486 9.81367 9.73583C9.9103 9.71651 10.0022 9.67834 10.0841 9.6235C10.1659 9.56867 10.2362 9.49824 10.2909 9.41625C10.8881 8.52 12.3534 8.08875 13.5618 8.45344C14.4946 8.73469 15.1387 9.41906 15.4509 10.4222C14.9784 10.3322 14.4984 10.2873 14.0174 10.2881C12.7124 10.2881 11.4909 10.6247 10.5796 11.235C9.50713 11.9597 8.9165 13.0312 8.9165 14.25C8.9165 16.1794 10.4034 17.58 12.4518 17.58C13.0542 17.5759 13.6496 17.4509 14.2028 17.2124C14.756 16.9739 15.2556 16.6268 15.6721 16.1916C16.2759 15.5634 16.9846 14.4703 17.1356 12.7134C17.1712 12.7378 17.2049 12.7631 17.2387 12.7884C18.1865 13.5047 18.6665 14.5013 18.6665 15.75C18.6665 17.565 16.7596 20.25 12.6665 20.25C10.1606 20.25 8.40275 19.4391 7.29088 17.7712C6.37869 16.4062 5.9165 14.4619 5.9165 12C5.9165 9.53813 6.37869 7.59375 7.29088 6.22875C8.40275 4.56094 10.1606 3.75 12.6665 3.75C15.7537 3.75 17.729 4.99219 18.7162 7.54875C18.7508 7.64172 18.8035 7.7269 18.8713 7.79936C18.939 7.87182 19.0205 7.93012 19.1109 7.97088C19.2014 8.01164 19.299 8.03406 19.3982 8.03683C19.4973 8.03959 19.5961 8.02266 19.6886 7.987C19.7812 7.95135 19.8658 7.89769 19.9375 7.82912C20.0092 7.76055 20.0665 7.67844 20.1063 7.58754C20.146 7.49664 20.1673 7.39877 20.169 7.29958C20.1706 7.20039 20.1526 7.10185 20.1159 7.00969C18.9178 3.89625 16.3415 2.25 12.6665 2.25C9.6665 2.25 7.43432 3.30844 6.04213 5.39625C4.96307 7.01531 4.4165 9.23625 4.4165 12C4.4165 14.7638 4.96307 16.9847 6.04213 18.6038C7.43432 20.6916 9.6665 21.75 12.6665 21.75C15.4856 21.75 17.2509 20.6737 18.2353 19.7719C19.4446 18.6637 20.1665 17.1562 20.1665 15.75C20.1665 14.0306 19.4671 12.5925 18.1434 11.5922ZM14.5912 15.1547C14.3148 15.4446 13.983 15.6762 13.6156 15.8356C13.2481 15.995 12.8524 16.0791 12.4518 16.0828C11.4384 16.0828 10.4165 15.5203 10.4165 14.2528C10.4165 13.0687 11.5415 11.7956 14.0174 11.7956C14.575 11.7941 15.1301 11.8705 15.6665 12.0225C15.6665 13.3425 15.2915 14.4244 14.5912 15.1519V15.1547Z"
        fill="#44403C" />
</svg>