<svg xmlns="http://www.w3.org/2000/svg" width="25" height="18" viewBox="0 0 25 18" fill="none">
    <path
        d="M24.4274 4.20005C24.4274 4.20005 24.1931 2.54536 23.4712 1.8188C22.5571 0.862549 21.5353 0.857861 21.0665 0.801611C17.7103 0.557861 12.6712 0.557861 12.6712 0.557861H12.6618C12.6618 0.557861 7.62275 0.557861 4.2665 0.801611C3.79775 0.857861 2.77588 0.862549 1.86182 1.8188C1.13994 2.54536 0.910254 4.20005 0.910254 4.20005C0.910254 4.20005 0.666504 6.14536 0.666504 8.08599V9.90474C0.666504 11.8454 0.905566 13.7907 0.905566 13.7907C0.905566 13.7907 1.13994 15.4454 1.85713 16.1719C2.77119 17.1282 3.97119 17.0954 4.50557 17.1985C6.42744 17.3813 12.6665 17.4375 12.6665 17.4375C12.6665 17.4375 17.7103 17.4282 21.0665 17.1891C21.5353 17.1329 22.5571 17.1282 23.4712 16.1719C24.1931 15.4454 24.4274 13.7907 24.4274 13.7907C24.4274 13.7907 24.6665 11.85 24.6665 9.90474V8.08599C24.6665 6.14536 24.4274 4.20005 24.4274 4.20005ZM10.1868 12.1125V5.36724L16.6696 8.75161L10.1868 12.1125Z"
        fill="#44403C" />
</svg>