<svg width="24" height="25" viewBox="0 0 24 25" fill="none" xmlns="http://www.w3.org/2000/svg">
    <g clip-path="url(#clip0_10054_736)">
        <path
            d="M24 12.9058C24 6.27834 18.6274 0.905762 12 0.905762C5.37258 0.905762 0 6.27834 0 12.9058C0 18.8952 4.3882 23.8597 10.125 24.76V16.3745H7.07812V12.9058H10.125V10.262C10.125 7.25451 11.9166 5.59326 14.6576 5.59326C15.9701 5.59326 17.3438 5.82764 17.3438 5.82764V8.78076H15.8306C14.34 8.78076 13.875 9.70584 13.875 10.6558V12.9058H17.2031L16.6711 16.3745H13.875V24.76C19.6118 23.8597 24 18.8952 24 12.9058Z"
            fill="#57534E" />
    </g>
    <defs>
        <clipPath id="clip0_10054_736">
            <rect width="24" height="24" fill="white" transform="translate(0 0.905762)" />
        </clipPath>
    </defs>
</svg>