<svg width="24" height="25" viewBox="0 0 24 25" fill="none" xmlns="http://www.w3.org/2000/svg">
    <g clip-path="url(#clip0_10054_737)">
        <path
            d="M22.2234 0.905762H1.77187C0.792187 0.905762 0 1.6792 0 2.63545V23.1714C0 24.1276 0.792187 24.9058 1.77187 24.9058H22.2234C23.2031 24.9058 24 24.1276 24 23.1761V2.63545C24 1.6792 23.2031 0.905762 22.2234 0.905762ZM7.12031 21.3573H3.55781V9.90107H7.12031V21.3573ZM5.33906 8.34014C4.19531 8.34014 3.27188 7.4167 3.27188 6.27764C3.27188 5.13857 4.19531 4.21514 5.33906 4.21514C6.47813 4.21514 7.40156 5.13857 7.40156 6.27764C7.40156 7.41201 6.47813 8.34014 5.33906 8.34014ZM20.4516 21.3573H16.8937V15.7886C16.8937 14.462 16.8703 12.7511 15.0422 12.7511C13.1906 12.7511 12.9094 14.1995 12.9094 15.6948V21.3573H9.35625V9.90107H12.7687V11.4667H12.8156C13.2891 10.5667 14.4516 9.61514 16.1813 9.61514C19.7859 9.61514 20.4516 11.987 20.4516 15.0714V21.3573Z"
            fill="#57534E" />
    </g>
    <defs>
        <clipPath id="clip0_10054_737">
            <rect width="24" height="24" fill="white" transform="translate(0 0.905762)" />
        </clipPath>
    </defs>
</svg>