<svg width="24" height="25" viewBox="0 0 24 25" fill="none" xmlns="http://www.w3.org/2000/svg">
    <g clip-path="url(#clip0_10054_739)">
        <path
            d="M17.0725 0.905762H13.0278V17.2536C13.0278 19.2014 11.4722 20.8014 9.53626 20.8014C7.60034 20.8014 6.04469 19.2014 6.04469 17.2536C6.04469 15.3406 7.56577 13.7753 9.43257 13.7058V9.60143C5.31872 9.67096 2 13.0449 2 17.2536C2 21.4971 5.38786 24.9058 9.57085 24.9058C13.7538 24.9058 17.1416 21.4623 17.1416 17.2536V8.87096C18.6627 9.98403 20.5295 10.6449 22.5 10.6797V6.57533C19.4579 6.47098 17.0725 3.96663 17.0725 0.905762Z"
            fill="#57534E" />
    </g>
    <defs>
        <clipPath id="clip0_10054_739">
            <rect width="24" height="24" fill="white" transform="translate(0 0.905762)" />
        </clipPath>
    </defs>
</svg>