<svg width="24" height="25" viewBox="0 0 24 25" fill="none" xmlns="http://www.w3.org/2000/svg">
    <path
        d="M23.7609 8.10605C23.7609 8.10605 23.5266 6.45137 22.8047 5.7248C21.8906 4.76855 20.8688 4.76387 20.4 4.70762C17.0438 4.46387 12.0047 4.46387 12.0047 4.46387H11.9953C11.9953 4.46387 6.95625 4.46387 3.6 4.70762C3.13125 4.76387 2.10938 4.76855 1.19531 5.7248C0.473438 6.45137 0.24375 8.10605 0.24375 8.10605C0.24375 8.10605 0 10.0514 0 11.992V13.8107C0 15.7514 0.239062 17.6967 0.239062 17.6967C0.239062 17.6967 0.473437 19.3514 1.19062 20.0779C2.10469 21.0342 3.30469 21.0014 3.83906 21.1045C5.76094 21.2873 12 21.3436 12 21.3436C12 21.3436 17.0438 21.3342 20.4 21.0951C20.8688 21.0389 21.8906 21.0342 22.8047 20.0779C23.5266 19.3514 23.7609 17.6967 23.7609 17.6967C23.7609 17.6967 24 15.7561 24 13.8107V11.992C24 10.0514 23.7609 8.10605 23.7609 8.10605ZM9.52031 16.0186V9.27324L16.0031 12.6576L9.52031 16.0186Z"
        fill="#57534E" />
</svg>